<?xml version="1.0" encoding="utf-8" ?>
<svg xmlns="http://www.w3.org/2000/svg" xmlns:xlink="http://www.w3.org/1999/xlink" width="300" height="300" shape-rendering="crispEdges">
	<path fill="blue" transform="matrix(0.866025 0.5 -0.5 0.866025 203.349 7.5962)" d="M50 75Q50 76.841156 49.969887 78.680084Q49.939774 80.519012 49.87962 82.351288Q49.819458 84.183563 49.729408 86.004784Q49.639359 87.826004 49.519627 89.631767Q49.399895 91.437531 49.250774 93.223503Q49.101654 95.009476 48.923504 96.771347Q48.74535 98.533211 48.538593 100.26673Q48.331841 102.00025 48.096981 103.70125Q47.862122 105.40225 47.599728 107.06663Q47.337334 108.731 47.048031 110.35476Q46.758728 111.9785 46.443214 113.5577Q46.127701 115.1369 45.786736 116.66776Q45.44577 118.19862 45.080185 119.67744Q44.714592 121.15627 44.32526 122.5795Q43.935921 124.00272 43.523773 125.36691Q43.111626 126.73111 42.677666 128.033Q42.243706 129.33488 41.788971 130.57132Q41.334236 131.80777 40.859829 132.97578Q40.385422 134.1438 39.892479 135.24057Q39.399536 136.33734 38.889252 137.36021Q38.378963 138.3831 37.852562 139.32964Q37.326164 140.27618 36.784916 141.14409Q36.243668 142.01199 35.688873 142.79919Q35.134083 143.58636 34.567081 144.29095Q34.000084 144.99551 33.422245 145.61578Q32.844406 146.23605 32.257118 146.77052Q31.669827 147.30498 31.074505 147.75235Q30.479179 148.19971 29.877256 148.55888Q29.275333 148.91808 28.668261 149.18823Q28.061188 149.45839 27.450428 149.63885Q26.839668 149.81932 26.226692 149.90967Q25.613716 150 25 150Q24.386284 150 23.773308 149.90967Q23.160332 149.81932 22.549572 149.63885Q21.93881 149.45839 21.331736 149.18823Q20.724663 148.91808 20.12274 148.55888Q19.520817 148.19971 18.925495 147.75233Q18.33017 147.30498 17.742882 146.77052Q17.155594 146.23605 16.577753 145.61578Q15.999912 144.99551 15.432913 144.29095Q14.865913 143.58636 14.311121 142.79918Q13.75633 142.01199 13.215082 141.14409Q12.673832 140.27618 12.14743 139.32964Q11.621029 138.38309 11.110744 137.3602Q10.600458 136.33731 10.107517 135.24055Q9.6145763 134.14378 9.1401682 132.97577Q8.6657591 131.80777 8.2110262 130.57132Q7.7562923 129.33488 7.32233 128.033Q6.8883677 126.73111 6.4762216 125.36691Q6.0640755 124.00272 5.6747389 122.5795Q5.2854013 121.15627 4.9198112 119.67744Q4.5542212 118.19862 4.2132592 116.66776Q3.8722973 115.1369 3.5567844 113.55771Q3.2412715 111.9785 2.9519682 110.35476Q2.6626647 108.731 2.4002676 107.06663Q2.1378703 105.40225 1.9030114 103.70125Q1.6681527 102.00025 1.4613982 100.26673Q1.2546437 98.533211 1.0764915 96.771347Q0.89833927 95.009476 0.74921852 93.223503Q0.60009789 91.437531 0.48036793 89.631767Q0.36063796 87.826004 0.27058721 86.004784Q0.18053646 84.183563 0.12038182 82.351288Q0.060227182 80.519012 0.030113591 78.680084Q0 76.841156 0 75Q0 73.158859 0.030113591 71.319931Q0.060227182 69.481003 0.12038182 67.64872Q0.18053646 65.816437 0.27058721 63.995213Q0.36063796 62.173988 0.48036793 60.368221Q0.60009789 58.56245 0.74921858 56.776482Q0.89833927 54.990509 1.0764915 53.228645Q1.2546437 51.466774 1.4613981 49.733253Q1.6681527 47.999733 1.9030114 46.298737Q2.1378703 44.59774 2.4002674 42.933361Q2.6626647 41.268986 2.9519682 39.645241Q3.2412715 38.021492 3.5567844 36.442287Q3.8722973 34.863083 4.2132592 33.33223Q4.5542212 31.801371 4.9198112 30.322548Q5.2854013 28.843727 5.6747384 27.420502Q6.0640755 25.997276 6.4762216 24.633076Q6.8883677 23.268875 7.32233 21.96699Q7.7562923 20.6651 8.2110252 19.428661Q8.6657581 18.192225 9.1401672 17.024214Q9.6145754 15.856203 10.107516 14.759434Q10.600457 13.662664 11.110743 12.639777Q11.621029 11.616891 12.14743 10.670352Q12.673832 9.723814 13.215081 8.8559036Q13.756329 7.9879932 14.311121 7.2008018Q14.865913 6.41361 15.432913 5.709034Q15.999912 5.004458 16.577753 4.3841944Q17.155594 3.763931 17.742884 3.2294745Q18.330173 2.6950178 18.925495 2.2476556Q19.520819 1.8002934 20.122742 1.4411037Q20.724667 1.0819139 21.331738 0.81176168Q21.938812 0.54160935 22.549572 0.36114547Q23.160332 0.18068154 23.773308 0.090340771Q24.386284 0 25 0Q25.613716 0 26.226692 0.090340771Q26.839668 0.18068154 27.45043 0.36114547Q28.061188 0.54160935 28.668261 0.81176162Q29.275331 1.0819139 29.877254 1.4411037Q30.479177 1.8002934 31.074501 2.2476556Q31.669827 2.6950178 32.257114 3.2294745Q32.844406 3.763931 33.422241 4.3841944Q34.000084 5.004458 34.567081 5.709034Q35.134083 6.41361 35.688873 7.2008014Q36.243668 7.9879932 36.784916 8.8559036Q37.326164 9.723814 37.852562 10.670353Q38.37896 11.616891 38.889248 12.639777Q39.399536 13.662664 39.892479 14.759434Q40.385422 15.856205 40.859829 17.024216Q41.334236 18.192226 41.788971 19.428663Q42.243706 20.6651 42.677666 21.96699Q43.111626 23.268875 43.523777 24.633076Q43.935921 25.997276 44.32526 27.420502Q44.714592 28.843727 45.080185 30.322548Q45.44577 31.801371 45.786736 33.33223Q46.127701 34.863083 46.443214 36.442287Q46.758724 38.021492 47.048027 39.645241Q47.33733 41.268986 47.599728 42.933365Q47.862122 44.59774 48.096981 46.298737Q48.331841 47.999733 48.538597 49.733253Q48.74535 51.466774 48.923504 53.228645Q49.101654 54.990509 49.250774 56.776482Q49.399895 58.56245 49.519627 60.368221Q49.639359 62.173988 49.729408 63.995209Q49.819458 65.816429 49.879616 67.648712Q49.93977 69.480995 49.969887 71.319923Q50 73.158859 50 75Z"/>
	<path fill="blue" transform="matrix(0.5 0.866025 -0.866025 0.5 267.404 53.3494)" d="M50 75Q50 76.841156 49.969887 78.680084Q49.939774 80.519012 49.87962 82.351288Q49.819458 84.183563 49.729408 86.004784Q49.639359 87.826004 49.519627 89.631767Q49.399895 91.437531 49.250774 93.223503Q49.101654 95.009476 48.923504 96.771347Q48.74535 98.533211 48.538593 100.26673Q48.331841 102.00025 48.096981 103.70125Q47.862122 105.40225 47.599728 107.06663Q47.337334 108.731 47.048031 110.35476Q46.758728 111.9785 46.443214 113.5577Q46.127701 115.1369 45.786736 116.66776Q45.44577 118.19862 45.080185 119.67744Q44.714592 121.15627 44.32526 122.5795Q43.935921 124.00272 43.523773 125.36691Q43.111626 126.73111 42.677666 128.033Q42.243706 129.33488 41.788971 130.57132Q41.334236 131.80777 40.859829 132.97578Q40.385422 134.1438 39.892479 135.24057Q39.399536 136.33734 38.889252 137.36021Q38.378963 138.3831 37.852562 139.32964Q37.326164 140.27618 36.784916 141.14409Q36.243668 142.01199 35.688873 142.79919Q35.134083 143.58636 34.567081 144.29095Q34.000084 144.99551 33.422245 145.61578Q32.844406 146.23605 32.257118 146.77052Q31.669827 147.30498 31.074505 147.75235Q30.479179 148.19971 29.877256 148.55888Q29.275333 148.91808 28.668261 149.18823Q28.061188 149.45839 27.450428 149.63885Q26.839668 149.81932 26.226692 149.90967Q25.613716 150 25 150Q24.386284 150 23.773308 149.90967Q23.160332 149.81932 22.549572 149.63885Q21.93881 149.45839 21.331736 149.18823Q20.724663 148.91808 20.12274 148.55888Q19.520817 148.19971 18.925495 147.75233Q18.33017 147.30498 17.742882 146.77052Q17.155594 146.23605 16.577753 145.61578Q15.999912 144.99551 15.432913 144.29095Q14.865913 143.58636 14.311121 142.79918Q13.75633 142.01199 13.215082 141.14409Q12.673832 140.27618 12.14743 139.32964Q11.621029 138.38309 11.110744 137.3602Q10.600458 136.33731 10.107517 135.24055Q9.6145763 134.14378 9.1401682 132.97577Q8.6657591 131.80777 8.2110262 130.57132Q7.7562923 129.33488 7.32233 128.033Q6.8883677 126.73111 6.4762216 125.36691Q6.0640755 124.00272 5.6747389 122.5795Q5.2854013 121.15627 4.9198112 119.67744Q4.5542212 118.19862 4.2132592 116.66776Q3.8722973 115.1369 3.5567844 113.55771Q3.2412715 111.9785 2.9519682 110.35476Q2.6626647 108.731 2.4002676 107.06663Q2.1378703 105.40225 1.9030114 103.70125Q1.6681527 102.00025 1.4613982 100.26673Q1.2546437 98.533211 1.0764915 96.771347Q0.89833927 95.009476 0.74921852 93.223503Q0.60009789 91.437531 0.48036793 89.631767Q0.36063796 87.826004 0.27058721 86.004784Q0.18053646 84.183563 0.12038182 82.351288Q0.060227182 80.519012 0.030113591 78.680084Q0 76.841156 0 75Q0 73.158859 0.030113591 71.319931Q0.060227182 69.481003 0.12038182 67.64872Q0.18053646 65.816437 0.27058721 63.995213Q0.36063796 62.173988 0.48036793 60.368221Q0.60009789 58.56245 0.74921858 56.776482Q0.89833927 54.990509 1.0764915 53.228645Q1.2546437 51.466774 1.4613981 49.733253Q1.6681527 47.999733 1.9030114 46.298737Q2.1378703 44.59774 2.4002674 42.933361Q2.6626647 41.268986 2.9519682 39.645241Q3.2412715 38.021492 3.5567844 36.442287Q3.8722973 34.863083 4.2132592 33.33223Q4.5542212 31.801371 4.9198112 30.322548Q5.2854013 28.843727 5.6747384 27.420502Q6.0640755 25.997276 6.4762216 24.633076Q6.8883677 23.268875 7.32233 21.96699Q7.7562923 20.6651 8.2110252 19.428661Q8.6657581 18.192225 9.1401672 17.024214Q9.6145754 15.856203 10.107516 14.759434Q10.600457 13.662664 11.110743 12.639777Q11.621029 11.616891 12.14743 10.670352Q12.673832 9.723814 13.215081 8.8559036Q13.756329 7.9879932 14.311121 7.2008018Q14.865913 6.41361 15.432913 5.709034Q15.999912 5.004458 16.577753 4.3841944Q17.155594 3.763931 17.742884 3.2294745Q18.330173 2.6950178 18.925495 2.2476556Q19.520819 1.8002934 20.122742 1.4411037Q20.724667 1.0819139 21.331738 0.81176168Q21.938812 0.54160935 22.549572 0.36114547Q23.160332 0.18068154 23.773308 0.090340771Q24.386284 0 25 0Q25.613716 0 26.226692 0.090340771Q26.839668 0.18068154 27.45043 0.36114547Q28.061188 0.54160935 28.668261 0.81176162Q29.275331 1.0819139 29.877254 1.4411037Q30.479177 1.8002934 31.074501 2.2476556Q31.669827 2.6950178 32.257114 3.2294745Q32.844406 3.763931 33.422241 4.3841944Q34.000084 5.004458 34.567081 5.709034Q35.134083 6.41361 35.688873 7.2008014Q36.243668 7.9879932 36.784916 8.8559036Q37.326164 9.723814 37.852562 10.670353Q38.37896 11.616891 38.889248 12.639777Q39.399536 13.662664 39.892479 14.759434Q40.385422 15.856205 40.859829 17.024216Q41.334236 18.192226 41.788971 19.428663Q42.243706 20.6651 42.677666 21.96699Q43.111626 23.268875 43.523777 24.633076Q43.935921 25.997276 44.32526 27.420502Q44.714592 28.843727 45.080185 30.322548Q45.44577 31.801371 45.786736 33.33223Q46.127701 34.863083 46.443214 36.442287Q46.758724 38.021492 47.048027 39.645241Q47.33733 41.268986 47.599728 42.933365Q47.862122 44.59774 48.096981 46.298737Q48.331841 47.999733 48.538597 49.733253Q48.74535 51.466774 48.923504 53.228645Q49.101654 54.990509 49.250774 56.776482Q49.399895 58.56245 49.519627 60.368221Q49.639359 62.173988 49.729408 63.995209Q49.819458 65.816429 49.879616 67.648712Q49.93977 69.480995 49.969887 71.319923Q50 73.158859 50 75Z"/>
	<path fill="blue" transform="matrix(0 1 -1 0 300 125)" d="M50 75Q50 76.841156 49.969887 78.680084Q49.939774 80.519012 49.87962 82.351288Q49.819458 84.183563 49.729408 86.004784Q49.639359 87.826004 49.519627 89.631767Q49.399895 91.437531 49.250774 93.223503Q49.101654 95.009476 48.923504 96.771347Q48.74535 98.533211 48.538593 100.26673Q48.331841 102.00025 48.096981 103.70125Q47.862122 105.40225 47.599728 107.06663Q47.337334 108.731 47.048031 110.35476Q46.758728 111.9785 46.443214 113.5577Q46.127701 115.1369 45.786736 116.66776Q45.44577 118.19862 45.080185 119.67744Q44.714592 121.15627 44.32526 122.5795Q43.935921 124.00272 43.523773 125.36691Q43.111626 126.73111 42.677666 128.033Q42.243706 129.33488 41.788971 130.57132Q41.334236 131.80777 40.859829 132.97578Q40.385422 134.1438 39.892479 135.24057Q39.399536 136.33734 38.889252 137.36021Q38.378963 138.3831 37.852562 139.32964Q37.326164 140.27618 36.784916 141.14409Q36.243668 142.01199 35.688873 142.79919Q35.134083 143.58636 34.567081 144.29095Q34.000084 144.99551 33.422245 145.61578Q32.844406 146.23605 32.257118 146.77052Q31.669827 147.30498 31.074505 147.75235Q30.479179 148.19971 29.877256 148.55888Q29.275333 148.91808 28.668261 149.18823Q28.061188 149.45839 27.450428 149.63885Q26.839668 149.81932 26.226692 149.90967Q25.613716 150 25 150Q24.386284 150 23.773308 149.90967Q23.160332 149.81932 22.549572 149.63885Q21.93881 149.45839 21.331736 149.18823Q20.724663 148.91808 20.12274 148.55888Q19.520817 148.19971 18.925495 147.75233Q18.33017 147.30498 17.742882 146.77052Q17.155594 146.23605 16.577753 145.61578Q15.999912 144.99551 15.432913 144.29095Q14.865913 143.58636 14.311121 142.79918Q13.75633 142.01199 13.215082 141.14409Q12.673832 140.27618 12.14743 139.32964Q11.621029 138.38309 11.110744 137.3602Q10.600458 136.33731 10.107517 135.24055Q9.6145763 134.14378 9.1401682 132.97577Q8.6657591 131.80777 8.2110262 130.57132Q7.7562923 129.33488 7.32233 128.033Q6.8883677 126.73111 6.4762216 125.36691Q6.0640755 124.00272 5.6747389 122.5795Q5.2854013 121.15627 4.9198112 119.67744Q4.5542212 118.19862 4.2132592 116.66776Q3.8722973 115.1369 3.5567844 113.55771Q3.2412715 111.9785 2.9519682 110.35476Q2.6626647 108.731 2.4002676 107.06663Q2.1378703 105.40225 1.9030114 103.70125Q1.6681527 102.00025 1.4613982 100.26673Q1.2546437 98.533211 1.0764915 96.771347Q0.89833927 95.009476 0.74921852 93.223503Q0.60009789 91.437531 0.48036793 89.631767Q0.36063796 87.826004 0.27058721 86.004784Q0.18053646 84.183563 0.12038182 82.351288Q0.060227182 80.519012 0.030113591 78.680084Q0 76.841156 0 75Q0 73.158859 0.030113591 71.319931Q0.060227182 69.481003 0.12038182 67.64872Q0.18053646 65.816437 0.27058721 63.995213Q0.36063796 62.173988 0.48036793 60.368221Q0.60009789 58.56245 0.74921858 56.776482Q0.89833927 54.990509 1.0764915 53.228645Q1.2546437 51.466774 1.4613981 49.733253Q1.6681527 47.999733 1.9030114 46.298737Q2.1378703 44.59774 2.4002674 42.933361Q2.6626647 41.268986 2.9519682 39.645241Q3.2412715 38.021492 3.5567844 36.442287Q3.8722973 34.863083 4.2132592 33.33223Q4.5542212 31.801371 4.9198112 30.322548Q5.2854013 28.843727 5.6747384 27.420502Q6.0640755 25.997276 6.4762216 24.633076Q6.8883677 23.268875 7.32233 21.96699Q7.7562923 20.6651 8.2110252 19.428661Q8.6657581 18.192225 9.1401672 17.024214Q9.6145754 15.856203 10.107516 14.759434Q10.600457 13.662664 11.110743 12.639777Q11.621029 11.616891 12.14743 10.670352Q12.673832 9.723814 13.215081 8.8559036Q13.756329 7.9879932 14.311121 7.2008018Q14.865913 6.41361 15.432913 5.709034Q15.999912 5.004458 16.577753 4.3841944Q17.155594 3.763931 17.742884 3.2294745Q18.330173 2.6950178 18.925495 2.2476556Q19.520819 1.8002934 20.122742 1.4411037Q20.724667 1.0819139 21.331738 0.81176168Q21.938812 0.54160935 22.549572 0.36114547Q23.160332 0.18068154 23.773308 0.090340771Q24.386284 0 25 0Q25.613716 0 26.226692 0.090340771Q26.839668 0.18068154 27.45043 0.36114547Q28.061188 0.54160935 28.668261 0.81176162Q29.275331 1.0819139 29.877254 1.4411037Q30.479177 1.8002934 31.074501 2.2476556Q31.669827 2.6950178 32.257114 3.2294745Q32.844406 3.763931 33.422241 4.3841944Q34.000084 5.004458 34.567081 5.709034Q35.134083 6.41361 35.688873 7.2008014Q36.243668 7.9879932 36.784916 8.8559036Q37.326164 9.723814 37.852562 10.670353Q38.37896 11.616891 38.889248 12.639777Q39.399536 13.662664 39.892479 14.759434Q40.385422 15.856205 40.859829 17.024216Q41.334236 18.192226 41.788971 19.428663Q42.243706 20.6651 42.677666 21.96699Q43.111626 23.268875 43.523777 24.633076Q43.935921 25.997276 44.32526 27.420502Q44.714592 28.843727 45.080185 30.322548Q45.44577 31.801371 45.786736 33.33223Q46.127701 34.863083 46.443214 36.442287Q46.758724 38.021492 47.048027 39.645241Q47.33733 41.268986 47.599728 42.933365Q47.862122 44.59774 48.096981 46.298737Q48.331841 47.999733 48.538597 49.733253Q48.74535 51.466774 48.923504 53.228645Q49.101654 54.990509 49.250774 56.776482Q49.399895 58.56245 49.519627 60.368221Q49.639359 62.173988 49.729408 63.995209Q49.819458 65.816429 49.879616 67.648712Q49.93977 69.480995 49.969887 71.319923Q50 73.158859 50 75Z"/>
	<path fill="blue" transform="matrix(-0.5 0.866025 -0.866025 -0.5 292.404 203.349)" d="M50 75Q50 76.841156 49.969887 78.680084Q49.939774 80.519012 49.87962 82.351288Q49.819458 84.183563 49.729408 86.004784Q49.639359 87.826004 49.519627 89.631767Q49.399895 91.437531 49.250774 93.223503Q49.101654 95.009476 48.923504 96.771347Q48.74535 98.533211 48.538593 100.26673Q48.331841 102.00025 48.096981 103.70125Q47.862122 105.40225 47.599728 107.06663Q47.337334 108.731 47.048031 110.35476Q46.758728 111.9785 46.443214 113.5577Q46.127701 115.1369 45.786736 116.66776Q45.44577 118.19862 45.080185 119.67744Q44.714592 121.15627 44.32526 122.5795Q43.935921 124.00272 43.523773 125.36691Q43.111626 126.73111 42.677666 128.033Q42.243706 129.33488 41.788971 130.57132Q41.334236 131.80777 40.859829 132.97578Q40.385422 134.1438 39.892479 135.24057Q39.399536 136.33734 38.889252 137.36021Q38.378963 138.3831 37.852562 139.32964Q37.326164 140.27618 36.784916 141.14409Q36.243668 142.01199 35.688873 142.79919Q35.134083 143.58636 34.567081 144.29095Q34.000084 144.99551 33.422245 145.61578Q32.844406 146.23605 32.257118 146.77052Q31.669827 147.30498 31.074505 147.75235Q30.479179 148.19971 29.877256 148.55888Q29.275333 148.91808 28.668261 149.18823Q28.061188 149.45839 27.450428 149.63885Q26.839668 149.81932 26.226692 149.90967Q25.613716 150 25 150Q24.386284 150 23.773308 149.90967Q23.160332 149.81932 22.549572 149.63885Q21.93881 149.45839 21.331736 149.18823Q20.724663 148.91808 20.12274 148.55888Q19.520817 148.19971 18.925495 147.75233Q18.33017 147.30498 17.742882 146.77052Q17.155594 146.23605 16.577753 145.61578Q15.999912 144.99551 15.432913 144.29095Q14.865913 143.58636 14.311121 142.79918Q13.75633 142.01199 13.215082 141.14409Q12.673832 140.27618 12.14743 139.32964Q11.621029 138.38309 11.110744 137.3602Q10.600458 136.33731 10.107517 135.24055Q9.6145763 134.14378 9.1401682 132.97577Q8.6657591 131.80777 8.2110262 130.57132Q7.7562923 129.33488 7.32233 128.033Q6.8883677 126.73111 6.4762216 125.36691Q6.0640755 124.00272 5.6747389 122.5795Q5.2854013 121.15627 4.9198112 119.67744Q4.5542212 118.19862 4.2132592 116.66776Q3.8722973 115.1369 3.5567844 113.55771Q3.2412715 111.9785 2.9519682 110.35476Q2.6626647 108.731 2.4002676 107.06663Q2.1378703 105.40225 1.9030114 103.70125Q1.6681527 102.00025 1.4613982 100.26673Q1.2546437 98.533211 1.0764915 96.771347Q0.89833927 95.009476 0.74921852 93.223503Q0.60009789 91.437531 0.48036793 89.631767Q0.36063796 87.826004 0.27058721 86.004784Q0.18053646 84.183563 0.12038182 82.351288Q0.060227182 80.519012 0.030113591 78.680084Q0 76.841156 0 75Q0 73.158859 0.030113591 71.319931Q0.060227182 69.481003 0.12038182 67.64872Q0.18053646 65.816437 0.27058721 63.995213Q0.36063796 62.173988 0.48036793 60.368221Q0.60009789 58.56245 0.74921858 56.776482Q0.89833927 54.990509 1.0764915 53.228645Q1.2546437 51.466774 1.4613981 49.733253Q1.6681527 47.999733 1.9030114 46.298737Q2.1378703 44.59774 2.4002674 42.933361Q2.6626647 41.268986 2.9519682 39.645241Q3.2412715 38.021492 3.5567844 36.442287Q3.8722973 34.863083 4.2132592 33.33223Q4.5542212 31.801371 4.9198112 30.322548Q5.2854013 28.843727 5.6747384 27.420502Q6.0640755 25.997276 6.4762216 24.633076Q6.8883677 23.268875 7.32233 21.96699Q7.7562923 20.6651 8.2110252 19.428661Q8.6657581 18.192225 9.1401672 17.024214Q9.6145754 15.856203 10.107516 14.759434Q10.600457 13.662664 11.110743 12.639777Q11.621029 11.616891 12.14743 10.670352Q12.673832 9.723814 13.215081 8.8559036Q13.756329 7.9879932 14.311121 7.2008018Q14.865913 6.41361 15.432913 5.709034Q15.999912 5.004458 16.577753 4.3841944Q17.155594 3.763931 17.742884 3.2294745Q18.330173 2.6950178 18.925495 2.2476556Q19.520819 1.8002934 20.122742 1.4411037Q20.724667 1.0819139 21.331738 0.81176168Q21.938812 0.54160935 22.549572 0.36114547Q23.160332 0.18068154 23.773308 0.090340771Q24.386284 0 25 0Q25.613716 0 26.226692 0.090340771Q26.839668 0.18068154 27.45043 0.36114547Q28.061188 0.54160935 28.668261 0.81176162Q29.275331 1.0819139 29.877254 1.4411037Q30.479177 1.8002934 31.074501 2.2476556Q31.669827 2.6950178 32.257114 3.2294745Q32.844406 3.763931 33.422241 4.3841944Q34.000084 5.004458 34.567081 5.709034Q35.134083 6.41361 35.688873 7.2008014Q36.243668 7.9879932 36.784916 8.8559036Q37.326164 9.723814 37.852562 10.670353Q38.37896 11.616891 38.889248 12.639777Q39.399536 13.662664 39.892479 14.759434Q40.385422 15.856205 40.859829 17.024216Q41.334236 18.192226 41.788971 19.428663Q42.243706 20.6651 42.677666 21.96699Q43.111626 23.268875 43.523777 24.633076Q43.935921 25.997276 44.32526 27.420502Q44.714592 28.843727 45.080185 30.322548Q45.44577 31.801371 45.786736 33.33223Q46.127701 34.863083 46.443214 36.442287Q46.758724 38.021492 47.048027 39.645241Q47.33733 41.268986 47.599728 42.933365Q47.862122 44.59774 48.096981 46.298737Q48.331841 47.999733 48.538597 49.733253Q48.74535 51.466774 48.923504 53.228645Q49.101654 54.990509 49.250774 56.776482Q49.399895 58.56245 49.519627 60.368221Q49.639359 62.173988 49.729408 63.995209Q49.819458 65.816429 49.879616 67.648712Q49.93977 69.480995 49.969887 71.319923Q50 73.158859 50 75Z"/>
	<path fill="blue" transform="matrix(-0.866025 0.5 -0.5 -0.866025 246.651 267.404)" d="M50 75Q50 76.841156 49.969887 78.680084Q49.939774 80.519012 49.87962 82.351288Q49.819458 84.183563 49.729408 86.004784Q49.639359 87.826004 49.519627 89.631767Q49.399895 91.437531 49.250774 93.223503Q49.101654 95.009476 48.923504 96.771347Q48.74535 98.533211 48.538593 100.26673Q48.331841 102.00025 48.096981 103.70125Q47.862122 105.40225 47.599728 107.06663Q47.337334 108.731 47.048031 110.35476Q46.758728 111.9785 46.443214 113.5577Q46.127701 115.1369 45.786736 116.66776Q45.44577 118.19862 45.080185 119.67744Q44.714592 121.15627 44.32526 122.5795Q43.935921 124.00272 43.523773 125.36691Q43.111626 126.73111 42.677666 128.033Q42.243706 129.33488 41.788971 130.57132Q41.334236 131.80777 40.859829 132.97578Q40.385422 134.1438 39.892479 135.24057Q39.399536 136.33734 38.889252 137.36021Q38.378963 138.3831 37.852562 139.32964Q37.326164 140.27618 36.784916 141.14409Q36.243668 142.01199 35.688873 142.79919Q35.134083 143.58636 34.567081 144.29095Q34.000084 144.99551 33.422245 145.61578Q32.844406 146.23605 32.257118 146.77052Q31.669827 147.30498 31.074505 147.75235Q30.479179 148.19971 29.877256 148.55888Q29.275333 148.91808 28.668261 149.18823Q28.061188 149.45839 27.450428 149.63885Q26.839668 149.81932 26.226692 149.90967Q25.613716 150 25 150Q24.386284 150 23.773308 149.90967Q23.160332 149.81932 22.549572 149.63885Q21.93881 149.45839 21.331736 149.18823Q20.724663 148.91808 20.12274 148.55888Q19.520817 148.19971 18.925495 147.75233Q18.33017 147.30498 17.742882 146.77052Q17.155594 146.23605 16.577753 145.61578Q15.999912 144.99551 15.432913 144.29095Q14.865913 143.58636 14.311121 142.79918Q13.75633 142.01199 13.215082 141.14409Q12.673832 140.27618 12.14743 139.32964Q11.621029 138.38309 11.110744 137.3602Q10.600458 136.33731 10.107517 135.24055Q9.6145763 134.14378 9.1401682 132.97577Q8.6657591 131.80777 8.2110262 130.57132Q7.7562923 129.33488 7.32233 128.033Q6.8883677 126.73111 6.4762216 125.36691Q6.0640755 124.00272 5.6747389 122.5795Q5.2854013 121.15627 4.9198112 119.67744Q4.5542212 118.19862 4.2132592 116.66776Q3.8722973 115.1369 3.5567844 113.55771Q3.2412715 111.9785 2.9519682 110.35476Q2.6626647 108.731 2.4002676 107.06663Q2.1378703 105.40225 1.9030114 103.70125Q1.6681527 102.00025 1.4613982 100.26673Q1.2546437 98.533211 1.0764915 96.771347Q0.89833927 95.009476 0.74921852 93.223503Q0.60009789 91.437531 0.48036793 89.631767Q0.36063796 87.826004 0.27058721 86.004784Q0.18053646 84.183563 0.12038182 82.351288Q0.060227182 80.519012 0.030113591 78.680084Q0 76.841156 0 75Q0 73.158859 0.030113591 71.319931Q0.060227182 69.481003 0.12038182 67.64872Q0.18053646 65.816437 0.27058721 63.995213Q0.36063796 62.173988 0.48036793 60.368221Q0.60009789 58.56245 0.74921858 56.776482Q0.89833927 54.990509 1.0764915 53.228645Q1.2546437 51.466774 1.4613981 49.733253Q1.6681527 47.999733 1.9030114 46.298737Q2.1378703 44.59774 2.4002674 42.933361Q2.6626647 41.268986 2.9519682 39.645241Q3.2412715 38.021492 3.5567844 36.442287Q3.8722973 34.863083 4.2132592 33.33223Q4.5542212 31.801371 4.9198112 30.322548Q5.2854013 28.843727 5.6747384 27.420502Q6.0640755 25.997276 6.4762216 24.633076Q6.8883677 23.268875 7.32233 21.96699Q7.7562923 20.6651 8.2110252 19.428661Q8.6657581 18.192225 9.1401672 17.024214Q9.6145754 15.856203 10.107516 14.759434Q10.600457 13.662664 11.110743 12.639777Q11.621029 11.616891 12.14743 10.670352Q12.673832 9.723814 13.215081 8.8559036Q13.756329 7.9879932 14.311121 7.2008018Q14.865913 6.41361 15.432913 5.709034Q15.999912 5.004458 16.577753 4.3841944Q17.155594 3.763931 17.742884 3.2294745Q18.330173 2.6950178 18.925495 2.2476556Q19.520819 1.8002934 20.122742 1.4411037Q20.724667 1.0819139 21.331738 0.81176168Q21.938812 0.54160935 22.549572 0.36114547Q23.160332 0.18068154 23.773308 0.090340771Q24.386284 0 25 0Q25.613716 0 26.226692 0.090340771Q26.839668 0.18068154 27.45043 0.36114547Q28.061188 0.54160935 28.668261 0.81176162Q29.275331 1.0819139 29.877254 1.4411037Q30.479177 1.8002934 31.074501 2.2476556Q31.669827 2.6950178 32.257114 3.2294745Q32.844406 3.763931 33.422241 4.3841944Q34.000084 5.004458 34.567081 5.709034Q35.134083 6.41361 35.688873 7.2008014Q36.243668 7.9879932 36.784916 8.8559036Q37.326164 9.723814 37.852562 10.670353Q38.37896 11.616891 38.889248 12.639777Q39.399536 13.662664 39.892479 14.759434Q40.385422 15.856205 40.859829 17.024216Q41.334236 18.192226 41.788971 19.428663Q42.243706 20.6651 42.677666 21.96699Q43.111626 23.268875 43.523777 24.633076Q43.935921 25.997276 44.32526 27.420502Q44.714592 28.843727 45.080185 30.322548Q45.44577 31.801371 45.786736 33.33223Q46.127701 34.863083 46.443214 36.442287Q46.758724 38.021492 47.048027 39.645241Q47.33733 41.268986 47.599728 42.933365Q47.862122 44.59774 48.096981 46.298737Q48.331841 47.999733 48.538597 49.733253Q48.74535 51.466774 48.923504 53.228645Q49.101654 54.990509 49.250774 56.776482Q49.399895 58.56245 49.519627 60.368221Q49.639359 62.173988 49.729408 63.995209Q49.819458 65.816429 49.879616 67.648712Q49.93977 69.480995 49.969887 71.319923Q50 73.158859 50 75Z"/>
	<path fill="blue" transform="matrix(-1 0 0 -1 175 300)" d="M50 75Q50 76.841156 49.969887 78.680084Q49.939774 80.519012 49.87962 82.351288Q49.819458 84.183563 49.729408 86.004784Q49.639359 87.826004 49.519627 89.631767Q49.399895 91.437531 49.250774 93.223503Q49.101654 95.009476 48.923504 96.771347Q48.74535 98.533211 48.538593 100.26673Q48.331841 102.00025 48.096981 103.70125Q47.862122 105.40225 47.599728 107.06663Q47.337334 108.731 47.048031 110.35476Q46.758728 111.9785 46.443214 113.5577Q46.127701 115.1369 45.786736 116.66776Q45.44577 118.19862 45.080185 119.67744Q44.714592 121.15627 44.32526 122.5795Q43.935921 124.00272 43.523773 125.36691Q43.111626 126.73111 42.677666 128.033Q42.243706 129.33488 41.788971 130.57132Q41.334236 131.80777 40.859829 132.97578Q40.385422 134.1438 39.892479 135.24057Q39.399536 136.33734 38.889252 137.36021Q38.378963 138.3831 37.852562 139.32964Q37.326164 140.27618 36.784916 141.14409Q36.243668 142.01199 35.688873 142.79919Q35.134083 143.58636 34.567081 144.29095Q34.000084 144.99551 33.422245 145.61578Q32.844406 146.23605 32.257118 146.77052Q31.669827 147.30498 31.074505 147.75235Q30.479179 148.19971 29.877256 148.55888Q29.275333 148.91808 28.668261 149.18823Q28.061188 149.45839 27.450428 149.63885Q26.839668 149.81932 26.226692 149.90967Q25.613716 150 25 150Q24.386284 150 23.773308 149.90967Q23.160332 149.81932 22.549572 149.63885Q21.93881 149.45839 21.331736 149.18823Q20.724663 148.91808 20.12274 148.55888Q19.520817 148.19971 18.925495 147.75233Q18.33017 147.30498 17.742882 146.77052Q17.155594 146.23605 16.577753 145.61578Q15.999912 144.99551 15.432913 144.29095Q14.865913 143.58636 14.311121 142.79918Q13.75633 142.01199 13.215082 141.14409Q12.673832 140.27618 12.14743 139.32964Q11.621029 138.38309 11.110744 137.3602Q10.600458 136.33731 10.107517 135.24055Q9.6145763 134.14378 9.1401682 132.97577Q8.6657591 131.80777 8.2110262 130.57132Q7.7562923 129.33488 7.32233 128.033Q6.8883677 126.73111 6.4762216 125.36691Q6.0640755 124.00272 5.6747389 122.5795Q5.2854013 121.15627 4.9198112 119.67744Q4.5542212 118.19862 4.2132592 116.66776Q3.8722973 115.1369 3.5567844 113.55771Q3.2412715 111.9785 2.9519682 110.35476Q2.6626647 108.731 2.4002676 107.06663Q2.1378703 105.40225 1.9030114 103.70125Q1.6681527 102.00025 1.4613982 100.26673Q1.2546437 98.533211 1.0764915 96.771347Q0.89833927 95.009476 0.74921852 93.223503Q0.60009789 91.437531 0.48036793 89.631767Q0.36063796 87.826004 0.27058721 86.004784Q0.18053646 84.183563 0.12038182 82.351288Q0.060227182 80.519012 0.030113591 78.680084Q0 76.841156 0 75Q0 73.158859 0.030113591 71.319931Q0.060227182 69.481003 0.12038182 67.64872Q0.18053646 65.816437 0.27058721 63.995213Q0.36063796 62.173988 0.48036793 60.368221Q0.60009789 58.56245 0.74921858 56.776482Q0.89833927 54.990509 1.0764915 53.228645Q1.2546437 51.466774 1.4613981 49.733253Q1.6681527 47.999733 1.9030114 46.298737Q2.1378703 44.59774 2.4002674 42.933361Q2.6626647 41.268986 2.9519682 39.645241Q3.2412715 38.021492 3.5567844 36.442287Q3.8722973 34.863083 4.2132592 33.33223Q4.5542212 31.801371 4.9198112 30.322548Q5.2854013 28.843727 5.6747384 27.420502Q6.0640755 25.997276 6.4762216 24.633076Q6.8883677 23.268875 7.32233 21.96699Q7.7562923 20.6651 8.2110252 19.428661Q8.6657581 18.192225 9.1401672 17.024214Q9.6145754 15.856203 10.107516 14.759434Q10.600457 13.662664 11.110743 12.639777Q11.621029 11.616891 12.14743 10.670352Q12.673832 9.723814 13.215081 8.8559036Q13.756329 7.9879932 14.311121 7.2008018Q14.865913 6.41361 15.432913 5.709034Q15.999912 5.004458 16.577753 4.3841944Q17.155594 3.763931 17.742884 3.2294745Q18.330173 2.6950178 18.925495 2.2476556Q19.520819 1.8002934 20.122742 1.4411037Q20.724667 1.0819139 21.331738 0.81176168Q21.938812 0.54160935 22.549572 0.36114547Q23.160332 0.18068154 23.773308 0.090340771Q24.386284 0 25 0Q25.613716 0 26.226692 0.090340771Q26.839668 0.18068154 27.45043 0.36114547Q28.061188 0.54160935 28.668261 0.81176162Q29.275331 1.0819139 29.877254 1.4411037Q30.479177 1.8002934 31.074501 2.2476556Q31.669827 2.6950178 32.257114 3.2294745Q32.844406 3.763931 33.422241 4.3841944Q34.000084 5.004458 34.567081 5.709034Q35.134083 6.41361 35.688873 7.2008014Q36.243668 7.9879932 36.784916 8.8559036Q37.326164 9.723814 37.852562 10.670353Q38.37896 11.616891 38.889248 12.639777Q39.399536 13.662664 39.892479 14.759434Q40.385422 15.856205 40.859829 17.024216Q41.334236 18.192226 41.788971 19.428663Q42.243706 20.6651 42.677666 21.96699Q43.111626 23.268875 43.523777 24.633076Q43.935921 25.997276 44.32526 27.420502Q44.714592 28.843727 45.080185 30.322548Q45.44577 31.801371 45.786736 33.33223Q46.127701 34.863083 46.443214 36.442287Q46.758724 38.021492 47.048027 39.645241Q47.33733 41.268986 47.599728 42.933365Q47.862122 44.59774 48.096981 46.298737Q48.331841 47.999733 48.538597 49.733253Q48.74535 51.466774 48.923504 53.228645Q49.101654 54.990509 49.250774 56.776482Q49.399895 58.56245 49.519627 60.368221Q49.639359 62.173988 49.729408 63.995209Q49.819458 65.816429 49.879616 67.648712Q49.93977 69.480995 49.969887 71.319923Q50 73.158859 50 75Z"/>
	<path fill="blue" transform="matrix(-0.866025 -0.5 0.5 -0.866025 96.6506 292.404)" d="M50 75Q50 76.841156 49.969887 78.680084Q49.939774 80.519012 49.87962 82.351288Q49.819458 84.183563 49.729408 86.004784Q49.639359 87.826004 49.519627 89.631767Q49.399895 91.437531 49.250774 93.223503Q49.101654 95.009476 48.923504 96.771347Q48.74535 98.533211 48.538593 100.26673Q48.331841 102.00025 48.096981 103.70125Q47.862122 105.40225 47.599728 107.06663Q47.337334 108.731 47.048031 110.35476Q46.758728 111.9785 46.443214 113.5577Q46.127701 115.1369 45.786736 116.66776Q45.44577 118.19862 45.080185 119.67744Q44.714592 121.15627 44.32526 122.5795Q43.935921 124.00272 43.523773 125.36691Q43.111626 126.73111 42.677666 128.033Q42.243706 129.33488 41.788971 130.57132Q41.334236 131.80777 40.859829 132.97578Q40.385422 134.1438 39.892479 135.24057Q39.399536 136.33734 38.889252 137.36021Q38.378963 138.3831 37.852562 139.32964Q37.326164 140.27618 36.784916 141.14409Q36.243668 142.01199 35.688873 142.79919Q35.134083 143.58636 34.567081 144.29095Q34.000084 144.99551 33.422245 145.61578Q32.844406 146.23605 32.257118 146.77052Q31.669827 147.30498 31.074505 147.75235Q30.479179 148.19971 29.877256 148.55888Q29.275333 148.91808 28.668261 149.18823Q28.061188 149.45839 27.450428 149.63885Q26.839668 149.81932 26.226692 149.90967Q25.613716 150 25 150Q24.386284 150 23.773308 149.90967Q23.160332 149.81932 22.549572 149.63885Q21.93881 149.45839 21.331736 149.18823Q20.724663 148.91808 20.12274 148.55888Q19.520817 148.19971 18.925495 147.75233Q18.33017 147.30498 17.742882 146.77052Q17.155594 146.23605 16.577753 145.61578Q15.999912 144.99551 15.432913 144.29095Q14.865913 143.58636 14.311121 142.79918Q13.75633 142.01199 13.215082 141.14409Q12.673832 140.27618 12.14743 139.32964Q11.621029 138.38309 11.110744 137.3602Q10.600458 136.33731 10.107517 135.24055Q9.6145763 134.14378 9.1401682 132.97577Q8.6657591 131.80777 8.2110262 130.57132Q7.7562923 129.33488 7.32233 128.033Q6.8883677 126.73111 6.4762216 125.36691Q6.0640755 124.00272 5.6747389 122.5795Q5.2854013 121.15627 4.9198112 119.67744Q4.5542212 118.19862 4.2132592 116.66776Q3.8722973 115.1369 3.5567844 113.55771Q3.2412715 111.9785 2.9519682 110.35476Q2.6626647 108.731 2.4002676 107.06663Q2.1378703 105.40225 1.9030114 103.70125Q1.6681527 102.00025 1.4613982 100.26673Q1.2546437 98.533211 1.0764915 96.771347Q0.89833927 95.009476 0.74921852 93.223503Q0.60009789 91.437531 0.48036793 89.631767Q0.36063796 87.826004 0.27058721 86.004784Q0.18053646 84.183563 0.12038182 82.351288Q0.060227182 80.519012 0.030113591 78.680084Q0 76.841156 0 75Q0 73.158859 0.030113591 71.319931Q0.060227182 69.481003 0.12038182 67.64872Q0.18053646 65.816437 0.27058721 63.995213Q0.36063796 62.173988 0.48036793 60.368221Q0.60009789 58.56245 0.74921858 56.776482Q0.89833927 54.990509 1.0764915 53.228645Q1.2546437 51.466774 1.4613981 49.733253Q1.6681527 47.999733 1.9030114 46.298737Q2.1378703 44.59774 2.4002674 42.933361Q2.6626647 41.268986 2.9519682 39.645241Q3.2412715 38.021492 3.5567844 36.442287Q3.8722973 34.863083 4.2132592 33.33223Q4.5542212 31.801371 4.9198112 30.322548Q5.2854013 28.843727 5.6747384 27.420502Q6.0640755 25.997276 6.4762216 24.633076Q6.8883677 23.268875 7.32233 21.96699Q7.7562923 20.6651 8.2110252 19.428661Q8.6657581 18.192225 9.1401672 17.024214Q9.6145754 15.856203 10.107516 14.759434Q10.600457 13.662664 11.110743 12.639777Q11.621029 11.616891 12.14743 10.670352Q12.673832 9.723814 13.215081 8.8559036Q13.756329 7.9879932 14.311121 7.2008018Q14.865913 6.41361 15.432913 5.709034Q15.999912 5.004458 16.577753 4.3841944Q17.155594 3.763931 17.742884 3.2294745Q18.330173 2.6950178 18.925495 2.2476556Q19.520819 1.8002934 20.122742 1.4411037Q20.724667 1.0819139 21.331738 0.81176168Q21.938812 0.54160935 22.549572 0.36114547Q23.160332 0.18068154 23.773308 0.090340771Q24.386284 0 25 0Q25.613716 0 26.226692 0.090340771Q26.839668 0.18068154 27.45043 0.36114547Q28.061188 0.54160935 28.668261 0.81176162Q29.275331 1.0819139 29.877254 1.4411037Q30.479177 1.8002934 31.074501 2.2476556Q31.669827 2.6950178 32.257114 3.2294745Q32.844406 3.763931 33.422241 4.3841944Q34.000084 5.004458 34.567081 5.709034Q35.134083 6.41361 35.688873 7.2008014Q36.243668 7.9879932 36.784916 8.8559036Q37.326164 9.723814 37.852562 10.670353Q38.37896 11.616891 38.889248 12.639777Q39.399536 13.662664 39.892479 14.759434Q40.385422 15.856205 40.859829 17.024216Q41.334236 18.192226 41.788971 19.428663Q42.243706 20.6651 42.677666 21.96699Q43.111626 23.268875 43.523777 24.633076Q43.935921 25.997276 44.32526 27.420502Q44.714592 28.843727 45.080185 30.322548Q45.44577 31.801371 45.786736 33.33223Q46.127701 34.863083 46.443214 36.442287Q46.758724 38.021492 47.048027 39.645241Q47.33733 41.268986 47.599728 42.933365Q47.862122 44.59774 48.096981 46.298737Q48.331841 47.999733 48.538597 49.733253Q48.74535 51.466774 48.923504 53.228645Q49.101654 54.990509 49.250774 56.776482Q49.399895 58.56245 49.519627 60.368221Q49.639359 62.173988 49.729408 63.995209Q49.819458 65.816429 49.879616 67.648712Q49.93977 69.480995 49.969887 71.319923Q50 73.158859 50 75Z"/>
	<path fill="blue" transform="matrix(-0.5 -0.866025 0.866025 -0.5 32.5962 246.651)" d="M50 75Q50 76.841156 49.969887 78.680084Q49.939774 80.519012 49.87962 82.351288Q49.819458 84.183563 49.729408 86.004784Q49.639359 87.826004 49.519627 89.631767Q49.399895 91.437531 49.250774 93.223503Q49.101654 95.009476 48.923504 96.771347Q48.74535 98.533211 48.538593 100.26673Q48.331841 102.00025 48.096981 103.70125Q47.862122 105.40225 47.599728 107.06663Q47.337334 108.731 47.048031 110.35476Q46.758728 111.9785 46.443214 113.5577Q46.127701 115.1369 45.786736 116.66776Q45.44577 118.19862 45.080185 119.67744Q44.714592 121.15627 44.32526 122.5795Q43.935921 124.00272 43.523773 125.36691Q43.111626 126.73111 42.677666 128.033Q42.243706 129.33488 41.788971 130.57132Q41.334236 131.80777 40.859829 132.97578Q40.385422 134.1438 39.892479 135.24057Q39.399536 136.33734 38.889252 137.36021Q38.378963 138.3831 37.852562 139.32964Q37.326164 140.27618 36.784916 141.14409Q36.243668 142.01199 35.688873 142.79919Q35.134083 143.58636 34.567081 144.29095Q34.000084 144.99551 33.422245 145.61578Q32.844406 146.23605 32.257118 146.77052Q31.669827 147.30498 31.074505 147.75235Q30.479179 148.19971 29.877256 148.55888Q29.275333 148.91808 28.668261 149.18823Q28.061188 149.45839 27.450428 149.63885Q26.839668 149.81932 26.226692 149.90967Q25.613716 150 25 150Q24.386284 150 23.773308 149.90967Q23.160332 149.81932 22.549572 149.63885Q21.93881 149.45839 21.331736 149.18823Q20.724663 148.91808 20.12274 148.55888Q19.520817 148.19971 18.925495 147.75233Q18.33017 147.30498 17.742882 146.77052Q17.155594 146.23605 16.577753 145.61578Q15.999912 144.99551 15.432913 144.29095Q14.865913 143.58636 14.311121 142.79918Q13.75633 142.01199 13.215082 141.14409Q12.673832 140.27618 12.14743 139.32964Q11.621029 138.38309 11.110744 137.3602Q10.600458 136.33731 10.107517 135.24055Q9.6145763 134.14378 9.1401682 132.97577Q8.6657591 131.80777 8.2110262 130.57132Q7.7562923 129.33488 7.32233 128.033Q6.8883677 126.73111 6.4762216 125.36691Q6.0640755 124.00272 5.6747389 122.5795Q5.2854013 121.15627 4.9198112 119.67744Q4.5542212 118.19862 4.2132592 116.66776Q3.8722973 115.1369 3.5567844 113.55771Q3.2412715 111.9785 2.9519682 110.35476Q2.6626647 108.731 2.4002676 107.06663Q2.1378703 105.40225 1.9030114 103.70125Q1.6681527 102.00025 1.4613982 100.26673Q1.2546437 98.533211 1.0764915 96.771347Q0.89833927 95.009476 0.74921852 93.223503Q0.60009789 91.437531 0.48036793 89.631767Q0.36063796 87.826004 0.27058721 86.004784Q0.18053646 84.183563 0.12038182 82.351288Q0.060227182 80.519012 0.030113591 78.680084Q0 76.841156 0 75Q0 73.158859 0.030113591 71.319931Q0.060227182 69.481003 0.12038182 67.64872Q0.18053646 65.816437 0.27058721 63.995213Q0.36063796 62.173988 0.48036793 60.368221Q0.60009789 58.56245 0.74921858 56.776482Q0.89833927 54.990509 1.0764915 53.228645Q1.2546437 51.466774 1.4613981 49.733253Q1.6681527 47.999733 1.9030114 46.298737Q2.1378703 44.59774 2.4002674 42.933361Q2.6626647 41.268986 2.9519682 39.645241Q3.2412715 38.021492 3.5567844 36.442287Q3.8722973 34.863083 4.2132592 33.33223Q4.5542212 31.801371 4.9198112 30.322548Q5.2854013 28.843727 5.6747384 27.420502Q6.0640755 25.997276 6.4762216 24.633076Q6.8883677 23.268875 7.32233 21.96699Q7.7562923 20.6651 8.2110252 19.428661Q8.6657581 18.192225 9.1401672 17.024214Q9.6145754 15.856203 10.107516 14.759434Q10.600457 13.662664 11.110743 12.639777Q11.621029 11.616891 12.14743 10.670352Q12.673832 9.723814 13.215081 8.8559036Q13.756329 7.9879932 14.311121 7.2008018Q14.865913 6.41361 15.432913 5.709034Q15.999912 5.004458 16.577753 4.3841944Q17.155594 3.763931 17.742884 3.2294745Q18.330173 2.6950178 18.925495 2.2476556Q19.520819 1.8002934 20.122742 1.4411037Q20.724667 1.0819139 21.331738 0.81176168Q21.938812 0.54160935 22.549572 0.36114547Q23.160332 0.18068154 23.773308 0.090340771Q24.386284 0 25 0Q25.613716 0 26.226692 0.090340771Q26.839668 0.18068154 27.45043 0.36114547Q28.061188 0.54160935 28.668261 0.81176162Q29.275331 1.0819139 29.877254 1.4411037Q30.479177 1.8002934 31.074501 2.2476556Q31.669827 2.6950178 32.257114 3.2294745Q32.844406 3.763931 33.422241 4.3841944Q34.000084 5.004458 34.567081 5.709034Q35.134083 6.41361 35.688873 7.2008014Q36.243668 7.9879932 36.784916 8.8559036Q37.326164 9.723814 37.852562 10.670353Q38.37896 11.616891 38.889248 12.639777Q39.399536 13.662664 39.892479 14.759434Q40.385422 15.856205 40.859829 17.024216Q41.334236 18.192226 41.788971 19.428663Q42.243706 20.6651 42.677666 21.96699Q43.111626 23.268875 43.523777 24.633076Q43.935921 25.997276 44.32526 27.420502Q44.714592 28.843727 45.080185 30.322548Q45.44577 31.801371 45.786736 33.33223Q46.127701 34.863083 46.443214 36.442287Q46.758724 38.021492 47.048027 39.645241Q47.33733 41.268986 47.599728 42.933365Q47.862122 44.59774 48.096981 46.298737Q48.331841 47.999733 48.538597 49.733253Q48.74535 51.466774 48.923504 53.228645Q49.101654 54.990509 49.250774 56.776482Q49.399895 58.56245 49.519627 60.368221Q49.639359 62.173988 49.729408 63.995209Q49.819458 65.816429 49.879616 67.648712Q49.93977 69.480995 49.969887 71.319923Q50 73.158859 50 75Z"/>
	<path fill="blue" transform="matrix(0 -1 1 0 0 175)" d="M50 75Q50 76.841156 49.969887 78.680084Q49.939774 80.519012 49.87962 82.351288Q49.819458 84.183563 49.729408 86.004784Q49.639359 87.826004 49.519627 89.631767Q49.399895 91.437531 49.250774 93.223503Q49.101654 95.009476 48.923504 96.771347Q48.74535 98.533211 48.538593 100.26673Q48.331841 102.00025 48.096981 103.70125Q47.862122 105.40225 47.599728 107.06663Q47.337334 108.731 47.048031 110.35476Q46.758728 111.9785 46.443214 113.5577Q46.127701 115.1369 45.786736 116.66776Q45.44577 118.19862 45.080185 119.67744Q44.714592 121.15627 44.32526 122.5795Q43.935921 124.00272 43.523773 125.36691Q43.111626 126.73111 42.677666 128.033Q42.243706 129.33488 41.788971 130.57132Q41.334236 131.80777 40.859829 132.97578Q40.385422 134.1438 39.892479 135.24057Q39.399536 136.33734 38.889252 137.36021Q38.378963 138.3831 37.852562 139.32964Q37.326164 140.27618 36.784916 141.14409Q36.243668 142.01199 35.688873 142.79919Q35.134083 143.58636 34.567081 144.29095Q34.000084 144.99551 33.422245 145.61578Q32.844406 146.23605 32.257118 146.77052Q31.669827 147.30498 31.074505 147.75235Q30.479179 148.19971 29.877256 148.55888Q29.275333 148.91808 28.668261 149.18823Q28.061188 149.45839 27.450428 149.63885Q26.839668 149.81932 26.226692 149.90967Q25.613716 150 25 150Q24.386284 150 23.773308 149.90967Q23.160332 149.81932 22.549572 149.63885Q21.93881 149.45839 21.331736 149.18823Q20.724663 148.91808 20.12274 148.55888Q19.520817 148.19971 18.925495 147.75233Q18.33017 147.30498 17.742882 146.77052Q17.155594 146.23605 16.577753 145.61578Q15.999912 144.99551 15.432913 144.29095Q14.865913 143.58636 14.311121 142.79918Q13.75633 142.01199 13.215082 141.14409Q12.673832 140.27618 12.14743 139.32964Q11.621029 138.38309 11.110744 137.3602Q10.600458 136.33731 10.107517 135.24055Q9.6145763 134.14378 9.1401682 132.97577Q8.6657591 131.80777 8.2110262 130.57132Q7.7562923 129.33488 7.32233 128.033Q6.8883677 126.73111 6.4762216 125.36691Q6.0640755 124.00272 5.6747389 122.5795Q5.2854013 121.15627 4.9198112 119.67744Q4.5542212 118.19862 4.2132592 116.66776Q3.8722973 115.1369 3.5567844 113.55771Q3.2412715 111.9785 2.9519682 110.35476Q2.6626647 108.731 2.4002676 107.06663Q2.1378703 105.40225 1.9030114 103.70125Q1.6681527 102.00025 1.4613982 100.26673Q1.2546437 98.533211 1.0764915 96.771347Q0.89833927 95.009476 0.74921852 93.223503Q0.60009789 91.437531 0.48036793 89.631767Q0.36063796 87.826004 0.27058721 86.004784Q0.18053646 84.183563 0.12038182 82.351288Q0.060227182 80.519012 0.030113591 78.680084Q0 76.841156 0 75Q0 73.158859 0.030113591 71.319931Q0.060227182 69.481003 0.12038182 67.64872Q0.18053646 65.816437 0.27058721 63.995213Q0.36063796 62.173988 0.48036793 60.368221Q0.60009789 58.56245 0.74921858 56.776482Q0.89833927 54.990509 1.0764915 53.228645Q1.2546437 51.466774 1.4613981 49.733253Q1.6681527 47.999733 1.9030114 46.298737Q2.1378703 44.59774 2.4002674 42.933361Q2.6626647 41.268986 2.9519682 39.645241Q3.2412715 38.021492 3.5567844 36.442287Q3.8722973 34.863083 4.2132592 33.33223Q4.5542212 31.801371 4.9198112 30.322548Q5.2854013 28.843727 5.6747384 27.420502Q6.0640755 25.997276 6.4762216 24.633076Q6.8883677 23.268875 7.32233 21.96699Q7.7562923 20.6651 8.2110252 19.428661Q8.6657581 18.192225 9.1401672 17.024214Q9.6145754 15.856203 10.107516 14.759434Q10.600457 13.662664 11.110743 12.639777Q11.621029 11.616891 12.14743 10.670352Q12.673832 9.723814 13.215081 8.8559036Q13.756329 7.9879932 14.311121 7.2008018Q14.865913 6.41361 15.432913 5.709034Q15.999912 5.004458 16.577753 4.3841944Q17.155594 3.763931 17.742884 3.2294745Q18.330173 2.6950178 18.925495 2.2476556Q19.520819 1.8002934 20.122742 1.4411037Q20.724667 1.0819139 21.331738 0.81176168Q21.938812 0.54160935 22.549572 0.36114547Q23.160332 0.18068154 23.773308 0.090340771Q24.386284 0 25 0Q25.613716 0 26.226692 0.090340771Q26.839668 0.18068154 27.45043 0.36114547Q28.061188 0.54160935 28.668261 0.81176162Q29.275331 1.0819139 29.877254 1.4411037Q30.479177 1.8002934 31.074501 2.2476556Q31.669827 2.6950178 32.257114 3.2294745Q32.844406 3.763931 33.422241 4.3841944Q34.000084 5.004458 34.567081 5.709034Q35.134083 6.41361 35.688873 7.2008014Q36.243668 7.9879932 36.784916 8.8559036Q37.326164 9.723814 37.852562 10.670353Q38.37896 11.616891 38.889248 12.639777Q39.399536 13.662664 39.892479 14.759434Q40.385422 15.856205 40.859829 17.024216Q41.334236 18.192226 41.788971 19.428663Q42.243706 20.6651 42.677666 21.96699Q43.111626 23.268875 43.523777 24.633076Q43.935921 25.997276 44.32526 27.420502Q44.714592 28.843727 45.080185 30.322548Q45.44577 31.801371 45.786736 33.33223Q46.127701 34.863083 46.443214 36.442287Q46.758724 38.021492 47.048027 39.645241Q47.33733 41.268986 47.599728 42.933365Q47.862122 44.59774 48.096981 46.298737Q48.331841 47.999733 48.538597 49.733253Q48.74535 51.466774 48.923504 53.228645Q49.101654 54.990509 49.250774 56.776482Q49.399895 58.56245 49.519627 60.368221Q49.639359 62.173988 49.729408 63.995209Q49.819458 65.816429 49.879616 67.648712Q49.93977 69.480995 49.969887 71.319923Q50 73.158859 50 75Z"/>
	<path fill="blue" transform="matrix(0.5 -0.866025 0.866025 0.5 7.59618 96.6506)" d="M50 75Q50 76.841156 49.969887 78.680084Q49.939774 80.519012 49.87962 82.351288Q49.819458 84.183563 49.729408 86.004784Q49.639359 87.826004 49.519627 89.631767Q49.399895 91.437531 49.250774 93.223503Q49.101654 95.009476 48.923504 96.771347Q48.74535 98.533211 48.538593 100.26673Q48.331841 102.00025 48.096981 103.70125Q47.862122 105.40225 47.599728 107.06663Q47.337334 108.731 47.048031 110.35476Q46.758728 111.9785 46.443214 113.5577Q46.127701 115.1369 45.786736 116.66776Q45.44577 118.19862 45.080185 119.67744Q44.714592 121.15627 44.32526 122.5795Q43.935921 124.00272 43.523773 125.36691Q43.111626 126.73111 42.677666 128.033Q42.243706 129.33488 41.788971 130.57132Q41.334236 131.80777 40.859829 132.97578Q40.385422 134.1438 39.892479 135.24057Q39.399536 136.33734 38.889252 137.36021Q38.378963 138.3831 37.852562 139.32964Q37.326164 140.27618 36.784916 141.14409Q36.243668 142.01199 35.688873 142.79919Q35.134083 143.58636 34.567081 144.29095Q34.000084 144.99551 33.422245 145.61578Q32.844406 146.23605 32.257118 146.77052Q31.669827 147.30498 31.074505 147.75235Q30.479179 148.19971 29.877256 148.55888Q29.275333 148.91808 28.668261 149.18823Q28.061188 149.45839 27.450428 149.63885Q26.839668 149.81932 26.226692 149.90967Q25.613716 150 25 150Q24.386284 150 23.773308 149.90967Q23.160332 149.81932 22.549572 149.63885Q21.93881 149.45839 21.331736 149.18823Q20.724663 148.91808 20.12274 148.55888Q19.520817 148.19971 18.925495 147.75233Q18.33017 147.30498 17.742882 146.77052Q17.155594 146.23605 16.577753 145.61578Q15.999912 144.99551 15.432913 144.29095Q14.865913 143.58636 14.311121 142.79918Q13.75633 142.01199 13.215082 141.14409Q12.673832 140.27618 12.14743 139.32964Q11.621029 138.38309 11.110744 137.3602Q10.600458 136.33731 10.107517 135.24055Q9.6145763 134.14378 9.1401682 132.97577Q8.6657591 131.80777 8.2110262 130.57132Q7.7562923 129.33488 7.32233 128.033Q6.8883677 126.73111 6.4762216 125.36691Q6.0640755 124.00272 5.6747389 122.5795Q5.2854013 121.15627 4.9198112 119.67744Q4.5542212 118.19862 4.2132592 116.66776Q3.8722973 115.1369 3.5567844 113.55771Q3.2412715 111.9785 2.9519682 110.35476Q2.6626647 108.731 2.4002676 107.06663Q2.1378703 105.40225 1.9030114 103.70125Q1.6681527 102.00025 1.4613982 100.26673Q1.2546437 98.533211 1.0764915 96.771347Q0.89833927 95.009476 0.74921852 93.223503Q0.60009789 91.437531 0.48036793 89.631767Q0.36063796 87.826004 0.27058721 86.004784Q0.18053646 84.183563 0.12038182 82.351288Q0.060227182 80.519012 0.030113591 78.680084Q0 76.841156 0 75Q0 73.158859 0.030113591 71.319931Q0.060227182 69.481003 0.12038182 67.64872Q0.18053646 65.816437 0.27058721 63.995213Q0.36063796 62.173988 0.48036793 60.368221Q0.60009789 58.56245 0.74921858 56.776482Q0.89833927 54.990509 1.0764915 53.228645Q1.2546437 51.466774 1.4613981 49.733253Q1.6681527 47.999733 1.9030114 46.298737Q2.1378703 44.59774 2.4002674 42.933361Q2.6626647 41.268986 2.9519682 39.645241Q3.2412715 38.021492 3.5567844 36.442287Q3.8722973 34.863083 4.2132592 33.33223Q4.5542212 31.801371 4.9198112 30.322548Q5.2854013 28.843727 5.6747384 27.420502Q6.0640755 25.997276 6.4762216 24.633076Q6.8883677 23.268875 7.32233 21.96699Q7.7562923 20.6651 8.2110252 19.428661Q8.6657581 18.192225 9.1401672 17.024214Q9.6145754 15.856203 10.107516 14.759434Q10.600457 13.662664 11.110743 12.639777Q11.621029 11.616891 12.14743 10.670352Q12.673832 9.723814 13.215081 8.8559036Q13.756329 7.9879932 14.311121 7.2008018Q14.865913 6.41361 15.432913 5.709034Q15.999912 5.004458 16.577753 4.3841944Q17.155594 3.763931 17.742884 3.2294745Q18.330173 2.6950178 18.925495 2.2476556Q19.520819 1.8002934 20.122742 1.4411037Q20.724667 1.0819139 21.331738 0.81176168Q21.938812 0.54160935 22.549572 0.36114547Q23.160332 0.18068154 23.773308 0.090340771Q24.386284 0 25 0Q25.613716 0 26.226692 0.090340771Q26.839668 0.18068154 27.45043 0.36114547Q28.061188 0.54160935 28.668261 0.81176162Q29.275331 1.0819139 29.877254 1.4411037Q30.479177 1.8002934 31.074501 2.2476556Q31.669827 2.6950178 32.257114 3.2294745Q32.844406 3.763931 33.422241 4.3841944Q34.000084 5.004458 34.567081 5.709034Q35.134083 6.41361 35.688873 7.2008014Q36.243668 7.9879932 36.784916 8.8559036Q37.326164 9.723814 37.852562 10.670353Q38.37896 11.616891 38.889248 12.639777Q39.399536 13.662664 39.892479 14.759434Q40.385422 15.856205 40.859829 17.024216Q41.334236 18.192226 41.788971 19.428663Q42.243706 20.6651 42.677666 21.96699Q43.111626 23.268875 43.523777 24.633076Q43.935921 25.997276 44.32526 27.420502Q44.714592 28.843727 45.080185 30.322548Q45.44577 31.801371 45.786736 33.33223Q46.127701 34.863083 46.443214 36.442287Q46.758724 38.021492 47.048027 39.645241Q47.33733 41.268986 47.599728 42.933365Q47.862122 44.59774 48.096981 46.298737Q48.331841 47.999733 48.538597 49.733253Q48.74535 51.466774 48.923504 53.228645Q49.101654 54.990509 49.250774 56.776482Q49.399895 58.56245 49.519627 60.368221Q49.639359 62.173988 49.729408 63.995209Q49.819458 65.816429 49.879616 67.648712Q49.93977 69.480995 49.969887 71.319923Q50 73.158859 50 75Z"/>
	<path fill="blue" transform="matrix(0.866025 -0.5 0.5 0.866025 53.3494 32.5962)" d="M50 75Q50 76.841156 49.969887 78.680084Q49.939774 80.519012 49.87962 82.351288Q49.819458 84.183563 49.729408 86.004784Q49.639359 87.826004 49.519627 89.631767Q49.399895 91.437531 49.250774 93.223503Q49.101654 95.009476 48.923504 96.771347Q48.74535 98.533211 48.538593 100.26673Q48.331841 102.00025 48.096981 103.70125Q47.862122 105.40225 47.599728 107.06663Q47.337334 108.731 47.048031 110.35476Q46.758728 111.9785 46.443214 113.5577Q46.127701 115.1369 45.786736 116.66776Q45.44577 118.19862 45.080185 119.67744Q44.714592 121.15627 44.32526 122.5795Q43.935921 124.00272 43.523773 125.36691Q43.111626 126.73111 42.677666 128.033Q42.243706 129.33488 41.788971 130.57132Q41.334236 131.80777 40.859829 132.97578Q40.385422 134.1438 39.892479 135.24057Q39.399536 136.33734 38.889252 137.36021Q38.378963 138.3831 37.852562 139.32964Q37.326164 140.27618 36.784916 141.14409Q36.243668 142.01199 35.688873 142.79919Q35.134083 143.58636 34.567081 144.29095Q34.000084 144.99551 33.422245 145.61578Q32.844406 146.23605 32.257118 146.77052Q31.669827 147.30498 31.074505 147.75235Q30.479179 148.19971 29.877256 148.55888Q29.275333 148.91808 28.668261 149.18823Q28.061188 149.45839 27.450428 149.63885Q26.839668 149.81932 26.226692 149.90967Q25.613716 150 25 150Q24.386284 150 23.773308 149.90967Q23.160332 149.81932 22.549572 149.63885Q21.93881 149.45839 21.331736 149.18823Q20.724663 148.91808 20.12274 148.55888Q19.520817 148.19971 18.925495 147.75233Q18.33017 147.30498 17.742882 146.77052Q17.155594 146.23605 16.577753 145.61578Q15.999912 144.99551 15.432913 144.29095Q14.865913 143.58636 14.311121 142.79918Q13.75633 142.01199 13.215082 141.14409Q12.673832 140.27618 12.14743 139.32964Q11.621029 138.38309 11.110744 137.3602Q10.600458 136.33731 10.107517 135.24055Q9.6145763 134.14378 9.1401682 132.97577Q8.6657591 131.80777 8.2110262 130.57132Q7.7562923 129.33488 7.32233 128.033Q6.8883677 126.73111 6.4762216 125.36691Q6.0640755 124.00272 5.6747389 122.5795Q5.2854013 121.15627 4.9198112 119.67744Q4.5542212 118.19862 4.2132592 116.66776Q3.8722973 115.1369 3.5567844 113.55771Q3.2412715 111.9785 2.9519682 110.35476Q2.6626647 108.731 2.4002676 107.06663Q2.1378703 105.40225 1.9030114 103.70125Q1.6681527 102.00025 1.4613982 100.26673Q1.2546437 98.533211 1.0764915 96.771347Q0.89833927 95.009476 0.74921852 93.223503Q0.60009789 91.437531 0.48036793 89.631767Q0.36063796 87.826004 0.27058721 86.004784Q0.18053646 84.183563 0.12038182 82.351288Q0.060227182 80.519012 0.030113591 78.680084Q0 76.841156 0 75Q0 73.158859 0.030113591 71.319931Q0.060227182 69.481003 0.12038182 67.64872Q0.18053646 65.816437 0.27058721 63.995213Q0.36063796 62.173988 0.48036793 60.368221Q0.60009789 58.56245 0.74921858 56.776482Q0.89833927 54.990509 1.0764915 53.228645Q1.2546437 51.466774 1.4613981 49.733253Q1.6681527 47.999733 1.9030114 46.298737Q2.1378703 44.59774 2.4002674 42.933361Q2.6626647 41.268986 2.9519682 39.645241Q3.2412715 38.021492 3.5567844 36.442287Q3.8722973 34.863083 4.2132592 33.33223Q4.5542212 31.801371 4.9198112 30.322548Q5.2854013 28.843727 5.6747384 27.420502Q6.0640755 25.997276 6.4762216 24.633076Q6.8883677 23.268875 7.32233 21.96699Q7.7562923 20.6651 8.2110252 19.428661Q8.6657581 18.192225 9.1401672 17.024214Q9.6145754 15.856203 10.107516 14.759434Q10.600457 13.662664 11.110743 12.639777Q11.621029 11.616891 12.14743 10.670352Q12.673832 9.723814 13.215081 8.8559036Q13.756329 7.9879932 14.311121 7.2008018Q14.865913 6.41361 15.432913 5.709034Q15.999912 5.004458 16.577753 4.3841944Q17.155594 3.763931 17.742884 3.2294745Q18.330173 2.6950178 18.925495 2.2476556Q19.520819 1.8002934 20.122742 1.4411037Q20.724667 1.0819139 21.331738 0.81176168Q21.938812 0.54160935 22.549572 0.36114547Q23.160332 0.18068154 23.773308 0.090340771Q24.386284 0 25 0Q25.613716 0 26.226692 0.090340771Q26.839668 0.18068154 27.45043 0.36114547Q28.061188 0.54160935 28.668261 0.81176162Q29.275331 1.0819139 29.877254 1.4411037Q30.479177 1.8002934 31.074501 2.2476556Q31.669827 2.6950178 32.257114 3.2294745Q32.844406 3.763931 33.422241 4.3841944Q34.000084 5.004458 34.567081 5.709034Q35.134083 6.41361 35.688873 7.2008014Q36.243668 7.9879932 36.784916 8.8559036Q37.326164 9.723814 37.852562 10.670353Q38.37896 11.616891 38.889248 12.639777Q39.399536 13.662664 39.892479 14.759434Q40.385422 15.856205 40.859829 17.024216Q41.334236 18.192226 41.788971 19.428663Q42.243706 20.6651 42.677666 21.96699Q43.111626 23.268875 43.523777 24.633076Q43.935921 25.997276 44.32526 27.420502Q44.714592 28.843727 45.080185 30.322548Q45.44577 31.801371 45.786736 33.33223Q46.127701 34.863083 46.443214 36.442287Q46.758724 38.021492 47.048027 39.645241Q47.33733 41.268986 47.599728 42.933365Q47.862122 44.59774 48.096981 46.298737Q48.331841 47.999733 48.538597 49.733253Q48.74535 51.466774 48.923504 53.228645Q49.101654 54.990509 49.250774 56.776482Q49.399895 58.56245 49.519627 60.368221Q49.639359 62.173988 49.729408 63.995209Q49.819458 65.816429 49.879616 67.648712Q49.93977 69.480995 49.969887 71.319923Q50 73.158859 50 75Z"/>
	<path fill="blue" transform="translate(125 0)" d="M50 75Q50 76.841156 49.969887 78.680084Q49.939774 80.519012 49.87962 82.351288Q49.819458 84.183563 49.729408 86.004784Q49.639359 87.826004 49.519627 89.631767Q49.399895 91.437531 49.250774 93.223503Q49.101654 95.009476 48.923504 96.771347Q48.74535 98.533211 48.538593 100.26673Q48.331841 102.00025 48.096981 103.70125Q47.862122 105.40225 47.599728 107.06663Q47.337334 108.731 47.048031 110.35476Q46.758728 111.9785 46.443214 113.5577Q46.127701 115.1369 45.786736 116.66776Q45.44577 118.19862 45.080185 119.67744Q44.714592 121.15627 44.32526 122.5795Q43.935921 124.00272 43.523773 125.36691Q43.111626 126.73111 42.677666 128.033Q42.243706 129.33488 41.788971 130.57132Q41.334236 131.80777 40.859829 132.97578Q40.385422 134.1438 39.892479 135.24057Q39.399536 136.33734 38.889252 137.36021Q38.378963 138.3831 37.852562 139.32964Q37.326164 140.27618 36.784916 141.14409Q36.243668 142.01199 35.688873 142.79919Q35.134083 143.58636 34.567081 144.29095Q34.000084 144.99551 33.422245 145.61578Q32.844406 146.23605 32.257118 146.77052Q31.669827 147.30498 31.074505 147.75235Q30.479179 148.19971 29.877256 148.55888Q29.275333 148.91808 28.668261 149.18823Q28.061188 149.45839 27.450428 149.63885Q26.839668 149.81932 26.226692 149.90967Q25.613716 150 25 150Q24.386284 150 23.773308 149.90967Q23.160332 149.81932 22.549572 149.63885Q21.93881 149.45839 21.331736 149.18823Q20.724663 148.91808 20.12274 148.55888Q19.520817 148.19971 18.925495 147.75233Q18.33017 147.30498 17.742882 146.77052Q17.155594 146.23605 16.577753 145.61578Q15.999912 144.99551 15.432913 144.29095Q14.865913 143.58636 14.311121 142.79918Q13.75633 142.01199 13.215082 141.14409Q12.673832 140.27618 12.14743 139.32964Q11.621029 138.38309 11.110744 137.3602Q10.600458 136.33731 10.107517 135.24055Q9.6145763 134.14378 9.1401682 132.97577Q8.6657591 131.80777 8.2110262 130.57132Q7.7562923 129.33488 7.32233 128.033Q6.8883677 126.73111 6.4762216 125.36691Q6.0640755 124.00272 5.6747389 122.5795Q5.2854013 121.15627 4.9198112 119.67744Q4.5542212 118.19862 4.2132592 116.66776Q3.8722973 115.1369 3.5567844 113.55771Q3.2412715 111.9785 2.9519682 110.35476Q2.6626647 108.731 2.4002676 107.06663Q2.1378703 105.40225 1.9030114 103.70125Q1.6681527 102.00025 1.4613982 100.26673Q1.2546437 98.533211 1.0764915 96.771347Q0.89833927 95.009476 0.74921852 93.223503Q0.60009789 91.437531 0.48036793 89.631767Q0.36063796 87.826004 0.27058721 86.004784Q0.18053646 84.183563 0.12038182 82.351288Q0.060227182 80.519012 0.030113591 78.680084Q0 76.841156 0 75Q0 73.158859 0.030113591 71.319931Q0.060227182 69.481003 0.12038182 67.64872Q0.18053646 65.816437 0.27058721 63.995213Q0.36063796 62.173988 0.48036793 60.368221Q0.60009789 58.56245 0.74921858 56.776482Q0.89833927 54.990509 1.0764915 53.228645Q1.2546437 51.466774 1.4613981 49.733253Q1.6681527 47.999733 1.9030114 46.298737Q2.1378703 44.59774 2.4002674 42.933361Q2.6626647 41.268986 2.9519682 39.645241Q3.2412715 38.021492 3.5567844 36.442287Q3.8722973 34.863083 4.2132592 33.33223Q4.5542212 31.801371 4.9198112 30.322548Q5.2854013 28.843727 5.6747384 27.420502Q6.0640755 25.997276 6.4762216 24.633076Q6.8883677 23.268875 7.32233 21.96699Q7.7562923 20.6651 8.2110252 19.428661Q8.6657581 18.192225 9.1401672 17.024214Q9.6145754 15.856203 10.107516 14.759434Q10.600457 13.662664 11.110743 12.639777Q11.621029 11.616891 12.14743 10.670352Q12.673832 9.723814 13.215081 8.8559036Q13.756329 7.9879932 14.311121 7.2008018Q14.865913 6.41361 15.432913 5.709034Q15.999912 5.004458 16.577753 4.3841944Q17.155594 3.763931 17.742884 3.2294745Q18.330173 2.6950178 18.925495 2.2476556Q19.520819 1.8002934 20.122742 1.4411037Q20.724667 1.0819139 21.331738 0.81176168Q21.938812 0.54160935 22.549572 0.36114547Q23.160332 0.18068154 23.773308 0.090340771Q24.386284 0 25 0Q25.613716 0 26.226692 0.090340771Q26.839668 0.18068154 27.45043 0.36114547Q28.061188 0.54160935 28.668261 0.81176162Q29.275331 1.0819139 29.877254 1.4411037Q30.479177 1.8002934 31.074501 2.2476556Q31.669827 2.6950178 32.257114 3.2294745Q32.844406 3.763931 33.422241 4.3841944Q34.000084 5.004458 34.567081 5.709034Q35.134083 6.41361 35.688873 7.2008014Q36.243668 7.9879932 36.784916 8.8559036Q37.326164 9.723814 37.852562 10.670353Q38.37896 11.616891 38.889248 12.639777Q39.399536 13.662664 39.892479 14.759434Q40.385422 15.856205 40.859829 17.024216Q41.334236 18.192226 41.788971 19.428663Q42.243706 20.6651 42.677666 21.96699Q43.111626 23.268875 43.523777 24.633076Q43.935921 25.997276 44.32526 27.420502Q44.714592 28.843727 45.080185 30.322548Q45.44577 31.801371 45.786736 33.33223Q46.127701 34.863083 46.443214 36.442287Q46.758724 38.021492 47.048027 39.645241Q47.33733 41.268986 47.599728 42.933365Q47.862122 44.59774 48.096981 46.298737Q48.331841 47.999733 48.538597 49.733253Q48.74535 51.466774 48.923504 53.228645Q49.101654 54.990509 49.250774 56.776482Q49.399895 58.56245 49.519627 60.368221Q49.639359 62.173988 49.729408 63.995209Q49.819458 65.816429 49.879616 67.648712Q49.93977 69.480995 49.969887 71.319923Q50 73.158859 50 75Z"/>
	<path fill="blue" transform="translate(125 0)" d="M50 75Q50 76.841156 49.969887 78.680084Q49.939774 80.519012 49.87962 82.351288Q49.819458 84.183563 49.729408 86.004784Q49.639359 87.826004 49.519627 89.631767Q49.399895 91.437531 49.250774 93.223503Q49.101654 95.009476 48.923504 96.771347Q48.74535 98.533211 48.538593 100.26673Q48.331841 102.00025 48.096981 103.70125Q47.862122 105.40225 47.599728 107.06663Q47.337334 108.731 47.048031 110.35476Q46.758728 111.9785 46.443214 113.5577Q46.127701 115.1369 45.786736 116.66776Q45.44577 118.19862 45.080185 119.67744Q44.714592 121.15627 44.32526 122.5795Q43.935921 124.00272 43.523773 125.36691Q43.111626 126.73111 42.677666 128.033Q42.243706 129.33488 41.788971 130.57132Q41.334236 131.80777 40.859829 132.97578Q40.385422 134.1438 39.892479 135.24057Q39.399536 136.33734 38.889252 137.36021Q38.378963 138.3831 37.852562 139.32964Q37.326164 140.27618 36.784916 141.14409Q36.243668 142.01199 35.688873 142.79919Q35.134083 143.58636 34.567081 144.29095Q34.000084 144.99551 33.422245 145.61578Q32.844406 146.23605 32.257118 146.77052Q31.669827 147.30498 31.074505 147.75235Q30.479179 148.19971 29.877256 148.55888Q29.275333 148.91808 28.668261 149.18823Q28.061188 149.45839 27.450428 149.63885Q26.839668 149.81932 26.226692 149.90967Q25.613716 150 25 150Q24.386284 150 23.773308 149.90967Q23.160332 149.81932 22.549572 149.63885Q21.93881 149.45839 21.331736 149.18823Q20.724663 148.91808 20.12274 148.55888Q19.520817 148.19971 18.925495 147.75233Q18.33017 147.30498 17.742882 146.77052Q17.155594 146.23605 16.577753 145.61578Q15.999912 144.99551 15.432913 144.29095Q14.865913 143.58636 14.311121 142.79918Q13.75633 142.01199 13.215082 141.14409Q12.673832 140.27618 12.14743 139.32964Q11.621029 138.38309 11.110744 137.3602Q10.600458 136.33731 10.107517 135.24055Q9.6145763 134.14378 9.1401682 132.97577Q8.6657591 131.80777 8.2110262 130.57132Q7.7562923 129.33488 7.32233 128.033Q6.8883677 126.73111 6.4762216 125.36691Q6.0640755 124.00272 5.6747389 122.5795Q5.2854013 121.15627 4.9198112 119.67744Q4.5542212 118.19862 4.2132592 116.66776Q3.8722973 115.1369 3.5567844 113.55771Q3.2412715 111.9785 2.9519682 110.35476Q2.6626647 108.731 2.4002676 107.06663Q2.1378703 105.40225 1.9030114 103.70125Q1.6681527 102.00025 1.4613982 100.26673Q1.2546437 98.533211 1.0764915 96.771347Q0.89833927 95.009476 0.74921852 93.223503Q0.60009789 91.437531 0.48036793 89.631767Q0.36063796 87.826004 0.27058721 86.004784Q0.18053646 84.183563 0.12038182 82.351288Q0.060227182 80.519012 0.030113591 78.680084Q0 76.841156 0 75Q0 73.158859 0.030113591 71.319931Q0.060227182 69.481003 0.12038182 67.64872Q0.18053646 65.816437 0.27058721 63.995213Q0.36063796 62.173988 0.48036793 60.368221Q0.60009789 58.56245 0.74921858 56.776482Q0.89833927 54.990509 1.0764915 53.228645Q1.2546437 51.466774 1.4613981 49.733253Q1.6681527 47.999733 1.9030114 46.298737Q2.1378703 44.59774 2.4002674 42.933361Q2.6626647 41.268986 2.9519682 39.645241Q3.2412715 38.021492 3.5567844 36.442287Q3.8722973 34.863083 4.2132592 33.33223Q4.5542212 31.801371 4.9198112 30.322548Q5.2854013 28.843727 5.6747384 27.420502Q6.0640755 25.997276 6.4762216 24.633076Q6.8883677 23.268875 7.32233 21.96699Q7.7562923 20.6651 8.2110252 19.428661Q8.6657581 18.192225 9.1401672 17.024214Q9.6145754 15.856203 10.107516 14.759434Q10.600457 13.662664 11.110743 12.639777Q11.621029 11.616891 12.14743 10.670352Q12.673832 9.723814 13.215081 8.8559036Q13.756329 7.9879932 14.311121 7.2008018Q14.865913 6.41361 15.432913 5.709034Q15.999912 5.004458 16.577753 4.3841944Q17.155594 3.763931 17.742884 3.2294745Q18.330173 2.6950178 18.925495 2.2476556Q19.520819 1.8002934 20.122742 1.4411037Q20.724667 1.0819139 21.331738 0.81176168Q21.938812 0.54160935 22.549572 0.36114547Q23.160332 0.18068154 23.773308 0.090340771Q24.386284 0 25 0Q25.613716 0 26.226692 0.090340771Q26.839668 0.18068154 27.45043 0.36114547Q28.061188 0.54160935 28.668261 0.81176162Q29.275331 1.0819139 29.877254 1.4411037Q30.479177 1.8002934 31.074501 2.2476556Q31.669827 2.6950178 32.257114 3.2294745Q32.844406 3.763931 33.422241 4.3841944Q34.000084 5.004458 34.567081 5.709034Q35.134083 6.41361 35.688873 7.2008014Q36.243668 7.9879932 36.784916 8.8559036Q37.326164 9.723814 37.852562 10.670353Q38.37896 11.616891 38.889248 12.639777Q39.399536 13.662664 39.892479 14.759434Q40.385422 15.856205 40.859829 17.024216Q41.334236 18.192226 41.788971 19.428663Q42.243706 20.6651 42.677666 21.96699Q43.111626 23.268875 43.523777 24.633076Q43.935921 25.997276 44.32526 27.420502Q44.714592 28.843727 45.080185 30.322548Q45.44577 31.801371 45.786736 33.33223Q46.127701 34.863083 46.443214 36.442287Q46.758724 38.021492 47.048027 39.645241Q47.33733 41.268986 47.599728 42.933365Q47.862122 44.59774 48.096981 46.298737Q48.331841 47.999733 48.538597 49.733253Q48.74535 51.466774 48.923504 53.228645Q49.101654 54.990509 49.250774 56.776482Q49.399895 58.56245 49.519627 60.368221Q49.639359 62.173988 49.729408 63.995209Q49.819458 65.816429 49.879616 67.648712Q49.93977 69.480995 49.969887 71.319923Q50 73.158859 50 75Z"/>
</svg>
