<?xml version="1.0" encoding="utf-8" ?>
<svg xmlns="http://www.w3.org/2000/svg" xmlns:xlink="http://www.w3.org/1999/xlink" width="30" height="30" shape-rendering="crispEdges">
	<path fill="red" d="M30 15Q30 15.368229 29.98193 15.736015Q29.963863 16.103802 29.927771 16.470257Q29.891678 16.836714 29.837646 17.200958Q29.783615 17.565201 29.711777 17.926353Q29.639938 18.287506 29.550465 18.644701Q29.460995 19.001896 29.354103 19.354269Q29.247211 19.706642 29.123158 20.053345Q28.999104 20.400049 28.858189 20.740248Q28.717274 21.080448 28.559835 21.413324Q28.402399 21.746201 28.228817 22.07095Q28.055233 22.395699 27.865925 22.711538Q27.676617 23.027378 27.47204 23.333549Q27.267464 23.639721 27.048109 23.935486Q26.828756 24.231251 26.595156 24.515896Q26.361553 24.800541 26.114265 25.07338Q25.866978 25.34622 25.6066 25.606598Q25.346222 25.866974 25.073381 26.114262Q24.800541 26.361549 24.515896 26.595154Q24.231251 26.828754 23.935486 27.048109Q23.639721 27.267464 23.333549 27.47204Q23.027378 27.676617 22.711538 27.865925Q22.395699 28.055233 22.07095 28.228817Q21.746201 28.402399 21.413324 28.559837Q21.080448 28.717274 20.74025 28.858189Q20.400051 28.999104 20.053345 29.123156Q19.706642 29.24721 19.354269 29.354101Q19.001896 29.460993 18.644701 29.550467Q18.287506 29.639938 17.926353 29.711777Q17.565201 29.783615 17.200958 29.837646Q16.836716 29.891678 16.470259 29.927771Q16.103802 29.963863 15.736015 29.98193Q15.368229 30 15 30Q14.631771 30 14.263985 29.98193Q13.896199 29.963863 13.529743 29.927771Q13.163286 29.891678 12.799043 29.837646Q12.434798 29.783615 12.073645 29.711777Q11.71249 29.639938 11.355297 29.550465Q10.998103 29.460995 10.64573 29.354103Q10.293356 29.247211 9.9466515 29.123158Q9.599947 28.999104 9.2597475 28.858189Q8.919548 28.717274 8.5866728 28.559835Q8.2537975 28.402399 7.9290481 28.228817Q7.6042986 28.055233 7.2884579 27.865925Q6.9726171 27.676617 6.6664457 27.47204Q6.3602743 27.267464 6.0645099 27.048109Q5.7687454 26.828756 5.4841008 26.595156Q5.1994553 26.361553 4.9266152 26.114265Q4.6537752 25.866978 4.3933978 25.6066Q4.1330204 25.346222 3.8857327 25.073381Q3.6384449 24.800541 3.4048429 24.515896Q3.1712403 24.231251 2.9518862 23.935486Q2.7325325 23.639721 2.5279553 23.333549Q2.3233781 23.027378 2.1340704 22.711538Q1.9447627 22.395699 1.7711809 22.07095Q1.5975988 21.746201 1.4401605 21.413324Q1.2827221 21.080448 1.1418068 20.74025Q1.0008916 20.400051 0.87683886 20.053345Q0.75278616 19.706642 0.64589489 19.354269Q0.53900355 19.001896 0.44953114 18.644701Q0.3600587 18.287506 0.28822073 17.926353Q0.21638277 17.565201 0.16235231 17.200958Q0.10832187 16.836716 0.072229087 16.470259Q0.036136307 16.103802 0.018068153 15.736015Q0 15.368229 0 15Q0 14.631771 0.018068153 14.263985Q0.036136307 13.896199 0.072229087 13.529743Q0.10832187 13.163286 0.16235232 12.799043Q0.21638277 12.434798 0.28822073 12.073645Q0.3600587 11.71249 0.44953111 11.355297Q0.53900355 10.998103 0.64589489 10.64573Q0.75278616 10.293356 0.87683886 9.9466515Q1.0008916 9.599947 1.1418068 9.2597475Q1.2827221 8.919548 1.4401604 8.5866728Q1.5975988 8.2537975 1.7711809 7.9290481Q1.9447629 7.6042986 2.1340706 7.2884579Q2.3233781 6.9726171 2.5279555 6.6664457Q2.7325325 6.3602743 2.9518867 6.0645099Q3.1712406 5.7687454 3.4048429 5.4841008Q3.6384449 5.1994553 3.8857327 4.9266152Q4.1330204 4.6537752 4.3933978 4.3933978Q4.6537752 4.1330204 4.9266152 3.8857327Q5.1994553 3.6384449 5.4841003 3.4048429Q5.7687454 3.1712403 6.0645099 2.9518862Q6.3602743 2.7325325 6.6664457 2.5279553Q6.9726171 2.3233781 7.2884579 2.1340704Q7.6042986 1.9447627 7.9290485 1.7711809Q8.2537975 1.5975988 8.5866728 1.4401605Q8.919548 1.2827221 9.2597475 1.1418068Q9.599947 1.0008916 9.9466515 0.87683886Q10.293356 0.75278616 10.645729 0.64589489Q10.998102 0.53900355 11.355297 0.44953114Q11.71249 0.3600587 12.073645 0.28822073Q12.434798 0.21638277 12.799042 0.16235231Q13.163286 0.10832187 13.529743 0.072229087Q13.896199 0.036136307 14.263985 0.018068153Q14.631771 0 15 0Q15.368229 0 15.736015 0.018068153Q16.103802 0.036136307 16.470257 0.072229087Q16.836714 0.10832187 17.200958 0.16235232Q17.565201 0.21638277 17.926353 0.28822073Q18.287506 0.3600587 18.644701 0.44953111Q19.001896 0.53900355 19.354269 0.64589489Q19.706642 0.75278616 20.053345 0.87683886Q20.400049 1.0008916 20.740248 1.1418068Q21.080448 1.2827221 21.413324 1.4401604Q21.746201 1.5975988 22.07095 1.7711809Q22.395699 1.9447629 22.711538 2.1340706Q23.027378 2.3233781 23.333549 2.5279555Q23.639721 2.7325325 23.935486 2.9518867Q24.231251 3.1712406 24.515896 3.4048429Q24.800541 3.6384449 25.07338 3.8857327Q25.34622 4.1330204 25.606598 4.3933978Q25.866974 4.6537752 26.114262 4.9266152Q26.361549 5.1994553 26.595154 5.4841003Q26.828754 5.7687454 27.048109 6.0645099Q27.267464 6.3602743 27.47204 6.6664457Q27.676617 6.9726171 27.865925 7.2884579Q28.055233 7.6042986 28.228817 7.9290485Q28.402399 8.2537975 28.559837 8.5866728Q28.717274 8.919548 28.858189 9.2597475Q28.999104 9.599947 29.123156 9.9466515Q29.24721 10.293356 29.354101 10.645729Q29.460993 10.998102 29.550467 11.355297Q29.639938 11.71249 29.711777 12.073645Q29.783615 12.434798 29.837646 12.799042Q29.891678 13.163286 29.927771 13.529743Q29.963863 13.896199 29.98193 14.263985Q30 14.631771 30 15Z"/>
	<path fill="#FF1A1A" transform="translate(1.5 1.5)" d="M27 13.5Q27 13.831407 26.983738 14.162414Q26.967476 14.493422 26.934994 14.823232Q26.90251 15.153042 26.853882 15.480861Q26.805252 15.80868 26.740597 16.133718Q26.675941 16.458755 26.595417 16.780231Q26.514893 17.101706 26.418692 17.418842Q26.322489 17.735977 26.210842 18.048012Q26.099194 18.360044 25.97237 18.666224Q25.845547 18.972403 25.703854 19.271992Q25.56216 19.571579 25.405937 19.863855Q25.249712 20.15613 25.079334 20.440388Q24.908958 20.724644 24.724838 21.000196Q24.540718 21.275751 24.3433 21.541939Q24.145882 21.808128 23.93564 22.064308Q23.725397 22.320488 23.502838 22.566046Q23.280277 22.8116 23.045938 23.04594Q22.811598 23.280281 22.566044 23.50284Q22.320488 23.725399 22.064308 23.935642Q21.808126 24.145882 21.541939 24.343302Q21.275749 24.540718 21.000196 24.724838Q20.724644 24.908958 20.440386 25.079334Q20.15613 25.24971 19.863855 25.405935Q19.571579 25.562159 19.271992 25.703854Q18.972403 25.845547 18.666224 25.97237Q18.360044 26.099194 18.048012 26.210842Q17.735977 26.322489 17.418842 26.418692Q17.101706 26.514894 16.780231 26.595421Q16.458755 26.675945 16.133718 26.740599Q15.80868 26.805252 15.480861 26.853882Q15.153042 26.90251 14.823232 26.934994Q14.493422 26.967476 14.162415 26.983738Q13.831407 27 13.5 27Q13.168593 27 12.837585 26.983738Q12.506579 26.967476 12.176769 26.934994Q11.846958 26.90251 11.519139 26.853882Q11.191319 26.805252 10.866281 26.740597Q10.541243 26.675941 10.219768 26.595417Q9.8982925 26.514893 9.5811567 26.418692Q9.2640209 26.322489 8.9519863 26.210842Q8.6399527 26.099194 8.3337727 25.97237Q8.0275936 25.845547 7.7280054 25.703854Q7.4284177 25.56216 7.1361437 25.405937Q6.8438692 25.249712 6.5596118 25.079334Q6.2753553 24.908958 5.9998012 24.724838Q5.724247 24.540718 5.4580584 24.3433Q5.1918707 24.145882 4.9356904 23.93564Q4.6795096 23.725397 4.4339538 23.502838Q4.1883979 23.280277 3.9540582 23.045938Q3.7197185 22.811598 3.4971597 22.566044Q3.2746007 22.320488 3.0643587 22.064308Q2.8541167 21.808126 2.6566982 21.541939Q2.4592795 21.275749 2.2751601 21.000196Q2.0910404 20.724644 1.9206636 20.440386Q1.7502866 20.15613 1.5940628 19.863855Q1.4378388 19.571579 1.2961444 19.271992Q1.1544499 18.972403 1.0276262 18.666224Q0.90080243 18.360044 0.78915501 18.048012Q0.67750758 17.735977 0.58130544 17.418842Q0.48510322 17.101706 0.40457803 16.780231Q0.32405284 16.458755 0.25939867 16.133718Q0.1947445 15.80868 0.14611709 15.480861Q0.097489685 15.153042 0.065006182 14.823232Q0.032522678 14.493422 0.016261339 14.162415Q0 13.831407 0 13.5Q0 13.168593 0.016261339 12.837585Q0.032522678 12.506579 0.065006182 12.176769Q0.097489685 11.846958 0.14611709 11.519139Q0.1947445 11.191319 0.25939867 10.866281Q0.32405284 10.541243 0.40457803 10.219768Q0.48510319 9.8982925 0.58130538 9.5811567Q0.67750752 9.2640209 0.78915501 8.9519863Q0.90080243 8.6399527 1.0276262 8.3337727Q1.1544499 8.0275936 1.2961444 7.7280054Q1.4378388 7.4284177 1.5940628 7.1361437Q1.7502866 6.8438692 1.9206636 6.5596118Q2.0910404 6.2753553 2.2751601 5.9998012Q2.4592795 5.724247 2.656698 5.4580584Q2.8541167 5.1918707 3.0643587 4.9356904Q3.2746007 4.6795096 3.4971597 4.4339538Q3.7197185 4.1883979 3.9540582 3.9540582Q4.1883979 3.7197185 4.4339538 3.4971597Q4.6795092 3.2746007 4.9356899 3.0643587Q5.1918707 2.8541167 5.4580584 2.6566982Q5.7242465 2.4592795 5.9998007 2.2751601Q6.2753549 2.0910404 6.5596118 1.9206636Q6.8438687 1.7502866 7.1361437 1.5940628Q7.4284177 1.4378388 7.7280054 1.2961444Q8.0275936 1.1544499 8.3337727 1.0276262Q8.6399527 0.90080243 8.9519863 0.78915501Q9.2640209 0.67750758 9.5811567 0.58130544Q9.8982925 0.48510322 10.219768 0.40457803Q10.541243 0.32405284 10.866281 0.25939867Q11.191319 0.1947445 11.519138 0.14611709Q11.846958 0.097489685 12.176769 0.065006182Q12.506579 0.032522678 12.837585 0.016261339Q13.168593 0 13.5 0Q13.831407 0 14.162414 0.016261339Q14.493422 0.032522678 14.823232 0.065006182Q15.153042 0.097489685 15.480861 0.14611709Q15.80868 0.1947445 16.133718 0.25939867Q16.458755 0.32405284 16.780231 0.40457803Q17.101706 0.48510319 17.418842 0.58130538Q17.735977 0.67750752 18.048012 0.78915501Q18.360044 0.90080243 18.666224 1.0276262Q18.972403 1.1544499 19.271992 1.2961444Q19.571579 1.4378388 19.863855 1.5940628Q20.15613 1.7502866 20.440388 1.9206636Q20.724644 2.0910404 21.000196 2.2751601Q21.275751 2.4592795 21.541939 2.656698Q21.808128 2.8541167 22.064308 3.0643587Q22.320488 3.2746007 22.566046 3.4971597Q22.8116 3.7197185 23.04594 3.9540582Q23.280281 4.1883979 23.50284 4.4339538Q23.725399 4.6795092 23.935642 4.9356899Q24.145882 5.1918707 24.343302 5.4580584Q24.540718 5.7242465 24.724838 5.9998007Q24.908958 6.2753549 25.079334 6.5596118Q25.24971 6.8438687 25.405935 7.1361437Q25.562159 7.4284177 25.703854 7.7280054Q25.845547 8.0275936 25.97237 8.3337727Q26.099194 8.6399527 26.210842 8.9519863Q26.322489 9.2640209 26.418692 9.5811567Q26.514894 9.8982925 26.595421 10.219768Q26.675945 10.541243 26.740599 10.866281Q26.805252 11.191319 26.853882 11.519138Q26.90251 11.846958 26.934994 12.176769Q26.967476 12.506579 26.983738 12.837585Q27 13.168593 27 13.5Z"/>
	<path fill="#FF3434" transform="translate(3 3)" d="M24 12Q24 12.294583 23.985544 12.588813Q23.97109 12.883041 23.942217 13.176207Q23.913342 13.469372 23.870117 13.760765Q23.826893 14.05216 23.769421 14.341084Q23.71195 14.630007 23.640373 14.915763Q23.568794 15.201517 23.483284 15.483417Q23.39777 15.765314 23.298527 16.042677Q23.199284 16.32004 23.086552 16.592199Q22.97382 16.864359 22.84787 17.130661Q22.72192 17.396961 22.583054 17.656761Q22.444187 17.916561 22.29274 18.169233Q22.141294 18.421906 21.977633 18.666842Q21.813971 18.911779 21.638489 19.14839Q21.463005 19.385002 21.276125 19.612719Q21.089245 19.840433 20.891415 20.058704Q20.693584 20.276978 20.485281 20.485279Q20.276979 20.693581 20.058708 20.891413Q19.840437 21.089243 19.612722 21.276125Q19.385006 21.463005 19.148394 21.638487Q18.911781 21.813971 18.666843 21.977633Q18.421906 22.141294 18.169233 22.292742Q17.916561 22.444187 17.656763 22.583054Q17.396961 22.72192 17.130661 22.84787Q16.864361 22.97382 16.592201 23.086552Q16.320042 23.199284 16.042679 23.298527Q15.765315 23.39777 15.483418 23.483284Q15.201518 23.568794 14.915762 23.640373Q14.630007 23.71195 14.341084 23.769421Q14.05216 23.826893 13.760766 23.870115Q13.469372 23.913342 13.176207 23.942217Q12.883041 23.97109 12.588812 23.985546Q12.294583 24 12 24Q11.705416 24 11.411186 23.985544Q11.116959 23.97109 10.823793 23.942217Q10.530628 23.913342 10.239233 23.870117Q9.9478378 23.826893 9.6589146 23.769421Q9.3699913 23.71195 9.0842361 23.640373Q8.7984819 23.568794 8.5165834 23.483284Q8.234684 23.39777 7.9573212 23.298527Q7.6799579 23.199284 7.4077983 23.086552Q7.1356392 22.97382 6.8693385 22.84787Q6.6030383 22.72192 6.3432388 22.583054Q6.0834394 22.444187 5.8307667 22.29274Q5.578094 22.141294 5.3331566 21.977633Q5.0882196 21.813971 4.8516078 21.638489Q4.614996 21.463005 4.3872805 21.276125Q4.159564 21.089245 3.9412923 20.891415Q3.7230206 20.693584 3.5147185 20.485281Q3.3064165 20.276979 3.1085865 20.058708Q2.9107563 19.840437 2.7238746 19.612722Q2.5369925 19.385006 2.3615096 19.148394Q2.1860261 18.911781 2.0223644 18.666843Q1.8587027 18.421906 1.7072564 18.169233Q1.5558105 17.916561 1.4169447 17.656763Q1.278079 17.396961 1.1521285 17.130661Q1.0261778 16.864361 0.91344553 16.592201Q0.8007133 16.320042 0.70147121 16.042679Q0.602229 15.765315 0.51671594 15.483418Q0.43120289 15.201518 0.35962492 14.915762Q0.28804699 14.630007 0.2305766 14.341084Q0.17310622 14.05216 0.12988187 13.760766Q0.086657502 13.469372 0.057783276 13.176207Q0.028909048 12.883041 0.014454524 12.588812Q0 12.294583 0 12Q0 11.705416 0.014454524 11.411186Q0.028909048 11.116959 0.057783276 10.823793Q0.086657502 10.530628 0.12988186 10.239233Q0.17310622 9.9478378 0.2305766 9.6589146Q0.28804699 9.3699913 0.35962492 9.0842361Q0.43120289 8.7984819 0.51671594 8.5165834Q0.602229 8.234684 0.70147115 7.9573212Q0.8007133 7.6799579 0.91344553 7.4077983Q1.0261778 7.1356392 1.1521285 6.8693385Q1.2780792 6.6030383 1.4169449 6.3432388Q1.5558106 6.0834394 1.7072568 5.8307667Q1.8587029 5.578094 2.0223646 5.3331566Q2.1860266 5.0882196 2.3615096 4.8516078Q2.5369928 4.614996 2.7238746 4.3872805Q2.9107563 4.159564 3.1085863 3.9412923Q3.3064165 3.7230206 3.5147185 3.5147185Q3.7230206 3.3064165 3.9412923 3.1085865Q4.159564 2.9107563 4.3872805 2.7238746Q4.614996 2.5369925 4.8516078 2.3615096Q5.0882196 2.1860261 5.3331566 2.0223644Q5.578094 1.8587027 5.8307667 1.7072564Q6.0834398 1.5558105 6.3432398 1.4169447Q6.6030388 1.278079 6.869339 1.1521285Q7.1356392 1.0261778 7.4077983 0.91344553Q7.6799579 0.8007133 7.9573212 0.70147121Q8.234684 0.602229 8.5165834 0.51671594Q8.7984819 0.43120289 9.0842371 0.35962492Q9.3699923 0.28804699 9.6589155 0.2305766Q9.9478378 0.17310622 10.239233 0.12988187Q10.530628 0.086657502 10.823793 0.057783276Q11.116959 0.028909048 11.411186 0.014454524Q11.705416 0 12 0Q12.294583 0 12.588813 0.014454524Q12.883041 0.028909048 13.176207 0.057783276Q13.469372 0.086657502 13.760765 0.12988186Q14.05216 0.17310622 14.341084 0.2305766Q14.630007 0.28804699 14.915763 0.35962492Q15.201517 0.43120289 15.483417 0.51671594Q15.765314 0.602229 16.042677 0.70147115Q16.32004 0.8007133 16.592199 0.91344553Q16.864359 1.0261778 17.130661 1.1521285Q17.396961 1.2780792 17.656761 1.4169449Q17.916561 1.5558106 18.169233 1.7072568Q18.421906 1.8587029 18.666842 2.0223646Q18.911779 2.1860266 19.14839 2.3615096Q19.385002 2.5369928 19.612719 2.7238746Q19.840433 2.9107563 20.058704 3.1085863Q20.276978 3.3064165 20.485279 3.5147185Q20.693581 3.7230206 20.891413 3.9412923Q21.089243 4.159564 21.276125 4.3872805Q21.463005 4.614996 21.638487 4.8516078Q21.813971 5.0882196 21.977633 5.3331566Q22.141294 5.578094 22.292742 5.8307667Q22.444187 6.0834398 22.583054 6.3432398Q22.72192 6.6030388 22.84787 6.869339Q22.97382 7.1356392 23.086552 7.4077983Q23.199284 7.6799579 23.298527 7.9573212Q23.39777 8.234684 23.483284 8.5165834Q23.568794 8.7984819 23.640373 9.0842371Q23.71195 9.3699923 23.769421 9.6589155Q23.826893 9.9478378 23.870115 10.239233Q23.913342 10.530628 23.942217 10.823793Q23.97109 11.116959 23.985546 11.411186Q24 11.705416 24 12Z"/>
	<path fill="#FF4E4E" transform="translate(4.5 4.5)" d="M21 10.5Q21 10.757761 20.987352 11.015211Q20.974705 11.272661 20.94944 11.529181Q20.924175 11.7857 20.886353 12.04067Q20.848532 12.29564 20.798244 12.548448Q20.747959 12.801255 20.685328 13.051291Q20.622698 13.301327 20.547874 13.547989Q20.473049 13.794651 20.386211 14.037343Q20.299374 14.280036 20.200733 14.518175Q20.102093 14.756315 19.991886 14.989328Q19.88168 15.22234 19.760174 15.449665Q19.638664 15.676989 19.506149 15.898076Q19.373634 16.119164 19.230429 16.333485Q19.087223 16.547806 18.933678 16.754841Q18.780128 16.961876 18.616608 17.161129Q18.453087 17.36038 18.279984 17.551369Q18.106884 17.742355 17.92462 17.92462Q17.742355 18.106884 17.551369 18.279984Q17.36038 18.453087 17.161129 18.616608Q16.961876 18.780128 16.754841 18.933676Q16.547806 19.087223 16.333485 19.230429Q16.119164 19.373634 15.898077 19.506149Q15.676989 19.638664 15.449665 19.760174Q15.22234 19.88168 14.989326 19.991886Q14.756313 20.102093 14.518174 20.200733Q14.280035 20.299374 14.037342 20.386211Q13.79465 20.473049 13.547989 20.547874Q13.301327 20.622698 13.051291 20.685328Q12.801255 20.747959 12.548448 20.798244Q12.29564 20.848532 12.040668 20.886354Q11.785699 20.924175 11.52918 20.94944Q11.27266 20.974705 11.01521 20.987352Q10.757761 21 10.5 21Q10.24224 21 9.9847889 20.987352Q9.7273388 20.974705 9.4708195 20.94944Q9.2143002 20.924175 8.9593287 20.886353Q8.7043581 20.848532 8.4515505 20.798244Q8.1987429 20.747959 7.9487076 20.685328Q7.6986713 20.622698 7.4520102 20.547874Q7.2053485 20.473049 6.9626555 20.386211Q6.7199631 20.299374 6.4818234 20.200733Q6.2436838 20.102093 6.0106711 19.991886Q5.7776585 19.88168 5.550334 19.760174Q5.3230095 19.638664 5.1019211 19.506149Q4.8808322 19.373634 4.666512 19.230429Q4.4521918 19.087223 4.2451568 18.933678Q4.0381217 18.780128 3.8388703 18.616608Q3.6396186 18.453087 3.4486308 18.279984Q3.2576427 18.106884 3.0753787 17.92462Q2.8931143 17.742355 2.7200131 17.551369Q2.5469117 17.36038 2.3833902 17.161129Q2.2198687 16.961876 2.0663209 16.754841Q1.9127731 16.547806 1.7695689 16.333485Q1.6263648 16.119164 1.4938495 15.898077Q1.3613341 15.676989 1.2398267 15.449665Q1.1183192 15.22234 1.0081123 14.989326Q0.89790547 14.756313 0.79926479 14.518174Q0.70062411 14.280035 0.61378729 14.037342Q0.52695036 13.79465 0.45212644 13.547989Q0.3773025 13.301327 0.31467181 13.051291Q0.2520411 12.801255 0.20175453 12.548448Q0.15146795 12.29564 0.11364663 12.040668Q0.075825319 11.785699 0.050560366 11.52918Q0.025295418 11.27266 0.012647709 11.01521Q0 10.757761 0 10.5Q0 10.24224 0.012647709 9.9847889Q0.025295418 9.7273388 0.050560366 9.4708195Q0.075825319 9.2143002 0.11364663 8.9593287Q0.15146795 8.7043581 0.20175453 8.4515505Q0.2520411 8.1987429 0.31467181 7.9487076Q0.3773025 7.6986713 0.45212644 7.4520102Q0.52695036 7.2053485 0.61378723 6.9626555Q0.70062411 6.7199631 0.79926479 6.4818234Q0.89790547 6.2436838 1.0081123 6.0106711Q1.1183192 5.7776585 1.2398267 5.550334Q1.3613341 5.3230095 1.4938494 5.1019211Q1.6263648 4.8808322 1.7695689 4.666512Q1.9127731 4.4521918 2.0663209 4.2451568Q2.2198687 4.0381217 2.3833902 3.8388703Q2.5469117 3.6396186 2.7200131 3.4486308Q2.8931143 3.2576427 3.0753787 3.0753787Q3.2576427 2.8931143 3.4486306 2.7200131Q3.6396189 2.5469117 3.8388705 2.3833902Q4.0381217 2.2198687 4.2451568 2.0663209Q4.4521918 1.9127731 4.666512 1.7695689Q4.8808322 1.6263648 5.1019211 1.4938495Q5.3230095 1.3613341 5.550334 1.2398267Q5.7776585 1.1183192 6.0106711 1.0081123Q6.2436838 0.89790547 6.4818234 0.79926479Q6.7199631 0.70062411 6.962656 0.61378729Q7.205349 0.52695036 7.4520106 0.45212644Q7.6986718 0.3773025 7.9487076 0.31467181Q8.1987429 0.2520411 8.4515505 0.20175453Q8.7043581 0.15146795 8.9593296 0.11364663Q9.2143002 0.075825319 9.4708204 0.050560366Q9.7273397 0.025295418 9.9847898 0.012647709Q10.24224 0 10.5 0Q10.757761 0 11.015211 0.012647709Q11.272661 0.025295418 11.529181 0.050560366Q11.7857 0.075825319 12.04067 0.11364663Q12.29564 0.15146795 12.548448 0.20175453Q12.801255 0.2520411 13.051291 0.31467181Q13.301327 0.3773025 13.547989 0.45212644Q13.794651 0.52695036 14.037343 0.61378723Q14.280036 0.70062411 14.518175 0.79926479Q14.756315 0.89790547 14.989328 1.0081123Q15.22234 1.1183192 15.449665 1.2398267Q15.676989 1.3613341 15.898076 1.4938494Q16.119164 1.6263648 16.333485 1.7695689Q16.547806 1.9127731 16.754841 2.0663209Q16.961876 2.2198687 17.161129 2.3833902Q17.36038 2.5469117 17.551369 2.7200131Q17.742355 2.8931143 17.92462 3.0753787Q18.106884 3.2576427 18.279984 3.4486306Q18.453087 3.6396189 18.616608 3.8388705Q18.780128 4.0381217 18.933676 4.2451568Q19.087223 4.4521918 19.230429 4.666512Q19.373634 4.8808322 19.506149 5.1019211Q19.638664 5.3230095 19.760174 5.550334Q19.88168 5.7776585 19.991886 6.0106711Q20.102093 6.2436838 20.200733 6.4818234Q20.299374 6.7199631 20.386211 6.962656Q20.473049 7.205349 20.547874 7.4520106Q20.622698 7.6986718 20.685328 7.9487076Q20.747959 8.1987429 20.798244 8.4515505Q20.848532 8.7043581 20.886354 8.9593296Q20.924175 9.2143002 20.94944 9.4708204Q20.974705 9.7273397 20.987352 9.9847898Q21 10.24224 21 10.5Z"/>
	<path fill="#FF6868" transform="translate(6 6)" d="M18 9Q18 9.2209377 17.989159 9.4416094Q17.978317 9.662281 17.956663 9.8821554Q17.935007 10.102028 17.902588 10.320575Q17.870171 10.53912 17.827066 10.755813Q17.783962 10.972505 17.73028 11.186821Q17.676598 11.401138 17.612463 11.612562Q17.548328 11.823986 17.473896 12.032008Q17.399464 12.24003 17.314915 12.44415Q17.230364 12.64827 17.1359 12.847996Q17.041439 13.047721 16.93729 13.242571Q16.833141 13.43742 16.719555 13.626925Q16.605972 13.816429 16.483225 14.000132Q16.360477 14.183834 16.228865 14.361293Q16.097254 14.538752 15.957092 14.709539Q15.816931 14.880326 15.668558 15.04403Q15.520185 15.207733 15.36396 15.36396Q15.207733 15.520185 15.04403 15.668559Q14.880326 15.816931 14.709539 15.957093Q14.538752 16.097254 14.361293 16.228867Q14.183834 16.360477 14.000132 16.483225Q13.816429 16.605972 13.626925 16.719555Q13.43742 16.833141 13.24257 16.93729Q13.04772 17.041439 12.847995 17.1359Q12.64827 17.230364 12.444149 17.314915Q12.240029 17.399464 12.032007 17.473896Q11.823986 17.548328 11.612562 17.612463Q11.401138 17.676598 11.186821 17.730282Q10.972504 17.783964 10.755812 17.827068Q10.53912 17.870171 10.320574 17.902588Q10.102028 17.935007 9.8821545 17.956663Q9.662281 17.978317 9.4416094 17.989159Q9.2209377 18 9 18Q8.7790623 18 8.5583916 17.989159Q8.337719 17.978317 8.1178455 17.956663Q7.8979716 17.935007 7.6794257 17.902588Q7.4608793 17.870171 7.2441869 17.827066Q7.0274944 17.783962 6.8131781 17.73028Q6.5988617 17.676598 6.3874383 17.612463Q6.1760139 17.548328 5.9679914 17.473896Q5.7599688 17.399464 5.5558491 17.314915Q5.3517294 17.230364 5.1520038 17.1359Q4.9522791 17.041439 4.7574296 16.93729Q4.5625796 16.833141 4.373075 16.719555Q4.1835704 16.605972 3.9998674 16.483225Q3.8161645 16.360477 3.638706 16.228865Q3.4612472 16.097254 3.2904601 15.957092Q3.1196733 15.816931 2.9559693 15.668558Q2.7922654 15.520185 2.6360388 15.36396Q2.4798124 15.207733 2.3314397 15.04403Q2.1830673 14.880326 2.042906 14.709539Q1.9027445 14.538752 1.7711321 14.361293Q1.6395197 14.183834 1.5167732 14.000132Q1.394027 13.816429 1.2804424 13.626925Q1.1668577 13.43742 1.0627085 13.24257Q0.95855922 13.04772 0.86409616 12.847995Q0.76963323 12.64827 0.6850841 12.444149Q0.60053492 12.240029 0.52610332 12.032007Q0.45167172 11.823986 0.38753694 11.612562Q0.32340217 11.401138 0.26971871 11.186821Q0.21603525 10.972504 0.17293245 10.755812Q0.12982966 10.53912 0.097411394 10.320574Q0.064993128 10.102028 0.043337457 9.8821545Q0.021681786 9.662281 0.010840893 9.4416094Q0 9.2209377 0 9Q0 8.7790623 0.010840893 8.5583916Q0.021681786 8.337719 0.043337457 8.1178455Q0.064993128 7.8979716 0.097411394 7.6794257Q0.12982966 7.4608793 0.17293245 7.2441869Q0.21603525 7.0274944 0.26971871 6.8131781Q0.32340217 6.5988617 0.38753694 6.3874383Q0.45167172 6.1760139 0.52610338 5.9679914Q0.60053492 5.7599688 0.6850841 5.5558491Q0.76963323 5.3517294 0.86409622 5.1520038Q0.95855927 4.9522791 1.0627086 4.7574296Q1.1668578 4.5625796 1.2804425 4.373075Q1.394027 4.1835704 1.5167733 3.9998674Q1.6395197 3.8161645 1.771132 3.638706Q1.9027444 3.4612472 2.0429058 3.2904601Q2.1830671 3.1196733 2.3314397 2.9559693Q2.4798124 2.7922654 2.6360388 2.6360388Q2.7922654 2.4798124 2.9559693 2.3314397Q3.1196733 2.1830673 3.2904601 2.042906Q3.4612472 1.9027445 3.6387057 1.7711321Q3.8161645 1.6395197 3.9998674 1.5167732Q4.1835699 1.394027 4.3730745 1.2804424Q4.5625792 1.1668577 4.7574291 1.0627085Q4.9522781 0.95855922 5.1520033 0.86409616Q5.3517284 0.76963323 5.5558486 0.6850841Q5.7599683 0.60053492 5.9679909 0.52610332Q6.1760139 0.45167172 6.3874383 0.38753694Q6.5988617 0.32340217 6.8131781 0.26971871Q7.0274944 0.21603525 7.2441869 0.17293245Q7.4608793 0.12982966 7.6794257 0.097411394Q7.8979721 0.064993128 8.1178465 0.043337457Q8.3377199 0.021681786 8.5583916 0.010840893Q8.7790623 0 9 0Q9.2209377 0 9.4416094 0.010840893Q9.662281 0.021681786 9.8821554 0.043337457Q10.102028 0.064993128 10.320575 0.097411394Q10.53912 0.12982966 10.755813 0.17293245Q10.972505 0.21603525 11.186821 0.26971871Q11.401138 0.32340217 11.612562 0.38753694Q11.823986 0.45167172 12.032008 0.52610338Q12.24003 0.60053492 12.44415 0.6850841Q12.64827 0.76963323 12.847996 0.86409622Q13.047721 0.95855927 13.242571 1.0627086Q13.43742 1.1668578 13.626925 1.2804425Q13.816429 1.394027 14.000132 1.5167733Q14.183834 1.6395197 14.361293 1.771132Q14.538752 1.9027444 14.709539 2.0429058Q14.880326 2.1830671 15.04403 2.3314397Q15.207733 2.4798124 15.36396 2.6360388Q15.520185 2.7922654 15.668559 2.9559693Q15.816931 3.1196733 15.957093 3.2904601Q16.097254 3.4612472 16.228867 3.6387057Q16.360477 3.8161645 16.483225 3.9998674Q16.605972 4.1835699 16.719555 4.3730745Q16.833141 4.5625792 16.93729 4.7574291Q17.041439 4.9522781 17.1359 5.1520033Q17.230364 5.3517284 17.314915 5.5558486Q17.399464 5.7599683 17.473896 5.9679909Q17.548328 6.1760139 17.612463 6.3874383Q17.676598 6.5988617 17.730282 6.8131781Q17.783964 7.0274944 17.827068 7.2441869Q17.870171 7.4608793 17.902588 7.6794257Q17.935007 7.8979721 17.956663 8.1178465Q17.978317 8.3377199 17.989159 8.5583916Q18 8.7790623 18 9Z"/>
	<path fill="#FF8282" transform="translate(7.5 7.5)" d="M15 7.5Q15 7.6841145 14.990965 7.8680077Q14.981932 8.0519009 14.963885 8.2351284Q14.945839 8.4183569 14.918823 8.6004791Q14.891808 8.7826004 14.855888 8.9631767Q14.819969 9.1437531 14.775232 9.3223505Q14.730497 9.500948 14.677052 9.6771345Q14.623606 9.8533211 14.561579 10.026672Q14.499552 10.200025 14.429094 10.370124Q14.358637 10.540224 14.279918 10.706662Q14.2012 10.8731 14.114408 11.035475Q14.027617 11.197849 13.932962 11.355769Q13.838308 11.513689 13.73602 11.666775Q13.633732 11.81986 13.524055 11.967743Q13.414378 12.115625 13.297578 12.257948Q13.180777 12.40027 13.057133 12.53669Q12.933489 12.67311 12.8033 12.803299Q12.673111 12.933487 12.536691 13.057131Q12.40027 13.180775 12.257948 13.297577Q12.115625 13.414377 11.967743 13.524055Q11.81986 13.633732 11.666775 13.73602Q11.513689 13.838308 11.355769 13.932962Q11.197849 14.027617 11.035475 14.114408Q10.8731 14.2012 10.706662 14.279919Q10.540224 14.358637 10.370125 14.429094Q10.200026 14.499552 10.026672 14.561578Q9.8533211 14.623605 9.6771345 14.677051Q9.500948 14.730496 9.3223505 14.775233Q9.1437531 14.819969 8.9631767 14.855888Q8.7826004 14.891808 8.6004791 14.918823Q8.4183578 14.945839 8.2351294 14.963885Q8.0519009 14.981932 7.8680077 14.990965Q7.6841145 15 7.5 15Q7.3158855 15 7.1319923 14.990965Q6.9480996 14.981932 6.7648716 14.963885Q6.5816431 14.945839 6.3995214 14.918823Q6.2173991 14.891808 6.0368223 14.855888Q5.856245 14.819969 5.6776485 14.775232Q5.4990516 14.730497 5.322865 14.677052Q5.146678 14.623606 4.9733257 14.561579Q4.7999735 14.499552 4.6298738 14.429094Q4.459774 14.358637 4.2933364 14.279918Q4.1268988 14.2012 3.964524 14.114408Q3.8021493 14.027617 3.6442289 13.932962Q3.4863086 13.838308 3.3332229 13.73602Q3.1801372 13.633732 3.0322549 13.524055Q2.8843727 13.414378 2.7420504 13.297578Q2.5997276 13.180777 2.4633076 13.057133Q2.3268876 12.933489 2.1966989 12.8033Q2.0665102 12.673111 1.9428663 12.536691Q1.8192225 12.40027 1.7024214 12.257948Q1.5856202 12.115625 1.4759431 11.967743Q1.3662663 11.81986 1.2639776 11.666775Q1.161689 11.513689 1.0670352 11.355769Q0.97238135 11.197849 0.88559043 11.035475Q0.7987994 10.8731 0.72008026 10.706662Q0.64136106 10.540224 0.57090342 10.370125Q0.50044578 10.200026 0.43841943 10.026672Q0.37639308 9.8533211 0.32294744 9.6771345Q0.26950178 9.500948 0.22476557 9.3223505Q0.18002935 9.1437531 0.14411037 8.9631767Q0.10819139 8.7826004 0.081176154 8.6004791Q0.054160934 8.4183578 0.036114544 8.2351294Q0.018068153 8.0519009 0.0090340767 7.8680077Q0 7.6841145 0 7.5Q0 7.3158855 0.0090340767 7.1319923Q0.018068153 6.9480996 0.036114544 6.7648716Q0.054160934 6.5816431 0.081176162 6.3995214Q0.10819139 6.2173991 0.14411037 6.0368223Q0.18002935 5.856245 0.22476555 5.6776485Q0.26950178 5.4990516 0.32294744 5.322865Q0.37639308 5.146678 0.43841943 4.9733257Q0.50044578 4.7999735 0.57090342 4.6298738Q0.64136106 4.459774 0.7200802 4.2933364Q0.7987994 4.1268988 0.88559043 3.964524Q0.97238147 3.8021493 1.0670353 3.6442289Q1.161689 3.4863086 1.2639778 3.3332229Q1.3662663 3.1801372 1.4759433 3.0322549Q1.5856203 2.8843727 1.7024214 2.7420504Q1.8192225 2.5997276 1.9428663 2.4633076Q2.0665102 2.3268876 2.1966989 2.1966989Q2.3268876 2.0665102 2.4633076 1.9428663Q2.5997276 1.8192225 2.7420502 1.7024214Q2.8843727 1.5856202 3.0322549 1.4759431Q3.1801372 1.3662663 3.3332229 1.2639776Q3.4863086 1.161689 3.6442289 1.0670352Q3.8021493 0.97238135 3.9645243 0.88559043Q4.1268988 0.7987994 4.2933364 0.72008026Q4.459774 0.64136106 4.6298738 0.57090342Q4.7999735 0.50044578 4.9733257 0.43841943Q5.146678 0.37639308 5.3228645 0.32294744Q5.4990511 0.26950178 5.6776485 0.22476557Q5.856245 0.18002935 6.0368223 0.14411037Q6.2173991 0.10819139 6.3995209 0.081176154Q6.5816431 0.054160934 6.7648716 0.036114544Q6.9480996 0.018068153 7.1319923 0.0090340767Q7.3158855 0 7.5 0Q7.6841145 0 7.8680077 0.0090340767Q8.0519009 0.018068153 8.2351284 0.036114544Q8.4183569 0.054160934 8.6004791 0.081176162Q8.7826004 0.10819139 8.9631767 0.14411037Q9.1437531 0.18002935 9.3223505 0.22476555Q9.500948 0.26950178 9.6771345 0.32294744Q9.8533211 0.37639308 10.026672 0.43841943Q10.200025 0.50044578 10.370124 0.57090342Q10.540224 0.64136106 10.706662 0.7200802Q10.8731 0.7987994 11.035475 0.88559043Q11.197849 0.97238147 11.355769 1.0670353Q11.513689 1.161689 11.666775 1.2639778Q11.81986 1.3662663 11.967743 1.4759433Q12.115625 1.5856203 12.257948 1.7024214Q12.40027 1.8192225 12.53669 1.9428663Q12.67311 2.0665102 12.803299 2.1966989Q12.933487 2.3268876 13.057131 2.4633076Q13.180775 2.5997276 13.297577 2.7420502Q13.414377 2.8843727 13.524055 3.0322549Q13.633732 3.1801372 13.73602 3.3332229Q13.838308 3.4863086 13.932962 3.6442289Q14.027617 3.8021493 14.114408 3.9645243Q14.2012 4.1268988 14.279919 4.2933364Q14.358637 4.459774 14.429094 4.6298738Q14.499552 4.7999735 14.561578 4.9733257Q14.623605 5.146678 14.677051 5.3228645Q14.730496 5.4990511 14.775233 5.6776485Q14.819969 5.856245 14.855888 6.0368223Q14.891808 6.2173991 14.918823 6.3995209Q14.945839 6.5816431 14.963885 6.7648716Q14.981932 6.9480996 14.990965 7.1319923Q15 7.3158855 15 7.5Z"/>
	<path fill="#FF9C9C" transform="translate(9 9)" d="M12 6Q12 6.1472917 11.992772 6.2944064Q11.985545 6.4415207 11.971108 6.5881033Q11.956671 6.7346859 11.935059 6.8803825Q11.913446 7.0260801 11.88471 7.1705418Q11.855975 7.3150034 11.820187 7.4578815Q11.784397 7.6007586 11.741642 7.7417083Q11.698885 7.8826571 11.649263 8.0213385Q11.599642 8.1600199 11.543276 8.2960997Q11.48691 8.4321795 11.423935 8.5653305Q11.36096 8.6984806 11.291527 8.8283806Q11.222094 8.9582806 11.14637 9.0846167Q11.070647 9.2109528 10.988816 9.3334208Q10.906985 9.4558897 10.819244 9.5741949Q10.731503 9.6925011 10.638062 9.8063593Q10.544622 9.9202166 10.445707 10.029352Q10.346792 10.138489 10.24264 10.24264Q10.13849 10.34679 10.029354 10.445706Q9.9202185 10.544621 9.8063612 10.638062Q9.692503 10.731503 9.5741968 10.819243Q9.4558907 10.906985 9.3334217 10.988816Q9.2109528 11.070647 9.0846167 11.146371Q8.9582806 11.222094 8.8283815 11.291527Q8.6984806 11.36096 8.5653305 11.423935Q8.4321804 11.48691 8.2961006 11.543276Q8.1600208 11.599642 8.0213394 11.649263Q7.8826575 11.698885 7.7417088 11.741642Q7.600759 11.784397 7.457881 11.820187Q7.3150034 11.855975 7.1705418 11.88471Q7.0260801 11.913446 6.880383 11.935058Q6.7346859 11.956671 6.5881033 11.971108Q6.4415207 11.985545 6.2944059 11.992773Q6.1472917 12 6 12Q5.8527079 12 5.7055931 11.992772Q5.5584793 11.985545 5.4118967 11.971108Q5.2653141 11.956671 5.1196165 11.935059Q4.9739189 11.913446 4.8294573 11.88471Q4.6849957 11.855975 4.5421181 11.820187Q4.399241 11.784397 4.2582917 11.741642Q4.117342 11.698885 3.9786606 11.649263Q3.8399789 11.599642 3.7038991 11.543276Q3.5678196 11.48691 3.4346693 11.423935Q3.3015192 11.36096 3.1716194 11.291527Q3.0417197 11.222094 2.9153833 11.14637Q2.789047 11.070647 2.6665783 10.988816Q2.5441098 10.906985 2.4258039 10.819244Q2.307498 10.731503 2.1936402 10.638062Q2.079782 10.544622 1.9706461 10.445707Q1.8615103 10.346792 1.7573593 10.24264Q1.6532083 10.13849 1.5542933 10.029354Q1.4553782 9.9202185 1.3619373 9.8063612Q1.2684963 9.692503 1.1807548 9.5741968Q1.093013 9.4558907 1.0111822 9.3334217Q0.92935133 9.2109528 0.85362822 9.0846167Q0.77790523 8.9582806 0.70847237 8.8283815Q0.63903952 8.6984806 0.57606423 8.5653305Q0.51308888 8.4321804 0.45672277 8.2961006Q0.40035665 8.1600208 0.3507356 8.0213394Q0.3011145 7.8826575 0.25835797 7.7417088Q0.21560144 7.600759 0.17981246 7.457881Q0.14402349 7.3150034 0.1152883 7.1705418Q0.086553112 7.0260801 0.064940937 6.880383Q0.043328751 6.7346859 0.028891638 6.5881033Q0.014454524 6.4415207 0.007227262 6.2944059Q0 6.1472917 0 6Q0 5.8527079 0.007227262 5.7055931Q0.014454524 5.5584793 0.028891638 5.4118967Q0.043328751 5.2653141 0.064940929 5.1196165Q0.086553112 4.9739189 0.1152883 4.8294573Q0.14402349 4.6849957 0.17981246 4.5421181Q0.21560144 4.399241 0.25835797 4.2582917Q0.3011145 4.117342 0.35073557 3.9786606Q0.40035665 3.8399789 0.45672277 3.7038991Q0.51308888 3.5678196 0.57606423 3.4346693Q0.63903958 3.3015192 0.70847243 3.1716194Q0.77790529 3.0417197 0.8536284 2.9153833Q0.92935145 2.789047 1.0111823 2.6665783Q1.0930133 2.5441098 1.1807548 2.4258039Q1.2684964 2.307498 1.3619373 2.1936402Q1.4553782 2.079782 1.5542932 1.9706461Q1.6532083 1.8615103 1.7573593 1.7573593Q1.8615103 1.6532083 1.9706461 1.5542933Q2.079782 1.4553782 2.1936402 1.3619373Q2.307498 1.2684963 2.4258039 1.1807548Q2.5441098 1.093013 2.6665783 1.0111822Q2.789047 0.92935133 2.9153833 0.85362822Q3.0417199 0.77790523 3.1716199 0.70847237Q3.3015194 0.63903952 3.4346695 0.57606423Q3.5678196 0.51308888 3.7038991 0.45672277Q3.8399789 0.40035665 3.9786606 0.3507356Q4.117342 0.3011145 4.2582917 0.25835797Q4.399241 0.21560144 4.5421185 0.17981246Q4.6849961 0.14402349 4.8294578 0.1152883Q4.9739189 0.086553112 5.1196165 0.064940937Q5.2653141 0.043328751 5.4118967 0.028891638Q5.5584793 0.014454524 5.7055931 0.007227262Q5.8527079 0 6 0Q6.1472917 0 6.2944064 0.007227262Q6.4415207 0.014454524 6.5881033 0.028891638Q6.7346859 0.043328751 6.8803825 0.064940929Q7.0260801 0.086553112 7.1705418 0.1152883Q7.3150034 0.14402349 7.4578815 0.17981246Q7.6007586 0.21560144 7.7417083 0.25835797Q7.8826571 0.3011145 8.0213385 0.35073557Q8.1600199 0.40035665 8.2960997 0.45672277Q8.4321795 0.51308888 8.5653305 0.57606423Q8.6984806 0.63903958 8.8283806 0.70847243Q8.9582806 0.77790529 9.0846167 0.8536284Q9.2109528 0.92935145 9.3334208 1.0111823Q9.4558897 1.0930133 9.5741949 1.1807548Q9.6925011 1.2684964 9.8063593 1.3619373Q9.9202166 1.4553782 10.029352 1.5542932Q10.138489 1.6532083 10.24264 1.7573593Q10.34679 1.8615103 10.445706 1.9706461Q10.544621 2.079782 10.638062 2.1936402Q10.731503 2.307498 10.819243 2.4258039Q10.906985 2.5441098 10.988816 2.6665783Q11.070647 2.789047 11.146371 2.9153833Q11.222094 3.0417199 11.291527 3.1716199Q11.36096 3.3015194 11.423935 3.4346695Q11.48691 3.5678196 11.543276 3.7038991Q11.599642 3.8399789 11.649263 3.9786606Q11.698885 4.117342 11.741642 4.2582917Q11.784397 4.399241 11.820187 4.5421185Q11.855975 4.6849961 11.88471 4.8294578Q11.913446 4.9739189 11.935058 5.1196165Q11.956671 5.2653141 11.971108 5.4118967Q11.985545 5.5584793 11.992773 5.7055931Q12 5.8527079 12 6Z"/>
	<path fill="#FFB6B6" transform="translate(10.5 10.5)" d="M9 4.5Q9 4.6104689 8.9945793 4.7208047Q8.9891586 4.8311405 8.9783316 4.9410777Q8.9675035 5.0510139 8.9512939 5.1602874Q8.9350853 5.2695599 8.9135332 5.3779063Q8.8919811 5.4862523 8.86514 5.5934105Q8.8382988 5.7005692 8.8062315 5.8062811Q8.7741642 5.911993 8.736948 6.0160041Q8.6997318 6.1200151 8.6574574 6.222075Q8.6151819 6.3241348 8.5679502 6.4239979Q8.5207195 6.5238605 8.4686451 6.6212854Q8.4165707 6.7187099 8.3597775 6.8134623Q8.3029861 6.9082146 8.2416124 7.0000658Q8.1802387 7.091917 8.1144323 7.1806464Q8.0486269 7.2693758 7.9785461 7.3547697Q7.9084654 7.4401631 7.8342791 7.5220151Q7.7600927 7.6038666 7.6819801 7.6819801Q7.6038666 7.7600927 7.5220151 7.8342795Q7.4401631 7.9084654 7.3547697 7.9785466Q7.2693758 8.0486269 7.1806464 8.1144333Q7.091917 8.1802387 7.0000658 8.2416124Q6.9082146 8.3029861 6.8134623 8.3597775Q6.7187099 8.4165707 6.621285 8.4686451Q6.52386 8.5207195 6.4239974 8.5679502Q6.3241348 8.6151819 6.2220745 8.6574574Q6.1200147 8.6997318 6.0160036 8.736948Q5.911993 8.7741642 5.8062811 8.8062315Q5.7005692 8.8382988 5.5934105 8.8651409Q5.4862518 8.8919821 5.3779058 8.9135342Q5.2695599 8.9350853 5.1602869 8.9512939Q5.0510139 8.9675035 4.9410772 8.9783316Q4.8311405 8.9891586 4.7208047 8.9945793Q4.6104689 9 4.5 9Q4.3895311 9 4.2791958 8.9945793Q4.1688595 8.9891586 4.0589228 8.9783316Q3.9489858 8.9675035 3.8397129 8.9512939Q3.7304397 8.9350853 3.6220934 8.9135332Q3.5137472 8.8919811 3.406589 8.86514Q3.2994308 8.8382988 3.1937191 8.8062315Q3.088007 8.7741642 2.9839957 8.736948Q2.8799844 8.6997318 2.7779245 8.6574574Q2.6758647 8.6151819 2.5760019 8.5679502Q2.4761395 8.5207195 2.3787148 8.4686451Q2.2812898 8.4165707 2.1865375 8.3597775Q2.0917852 8.3029861 1.9999337 8.2416124Q1.9080822 8.1802387 1.819353 8.1144323Q1.7306236 8.0486269 1.6452301 7.9785461Q1.5598366 7.9084654 1.4779847 7.8342791Q1.3961327 7.7600927 1.3180194 7.6819801Q1.2399062 7.6038666 1.1657199 7.5220151Q1.0915337 7.4401631 1.021453 7.3547697Q0.95137227 7.2693758 0.88556606 7.1806464Q0.81975985 7.091917 0.75838661 7.0000658Q0.6970135 6.9082146 0.64022118 6.8134623Q0.58342886 6.7187099 0.53135425 6.621285Q0.47927961 6.52386 0.43204808 6.4239974Q0.38481662 6.3241348 0.34254205 6.2220745Q0.30026746 6.1200147 0.26305166 6.0160036Q0.22583586 5.911993 0.19376847 5.8062811Q0.16170108 5.7005692 0.13485935 5.5934105Q0.10801762 5.4862518 0.086466223 5.3779058Q0.06491483 5.2695599 0.048705697 5.1602869Q0.032496564 5.0510139 0.021668728 4.9410772Q0.010840893 4.8311405 0.0054204464 4.7208047Q0 4.6104689 0 4.5Q0 4.3895311 0.0054204464 4.2791958Q0.010840893 4.1688595 0.021668728 4.0589228Q0.032496564 3.9489858 0.048705697 3.8397129Q0.06491483 3.7304397 0.086466223 3.6220934Q0.10801762 3.5137472 0.13485935 3.406589Q0.16170108 3.2994308 0.19376847 3.1937191Q0.22583586 3.088007 0.26305169 2.9839957Q0.30026746 2.8799844 0.34254205 2.7779245Q0.38481662 2.6758647 0.43204811 2.5760019Q0.47927964 2.4761395 0.53135431 2.3787148Q0.58342892 2.2812898 0.64022124 2.1865375Q0.6970135 2.0917852 0.75838667 1.9999337Q0.81975985 1.9080822 0.885566 1.819353Q0.95137221 1.7306236 1.0214529 1.6452301Q1.0915335 1.5598366 1.1657199 1.4779847Q1.2399062 1.3961327 1.3180194 1.3180194Q1.3961327 1.2399062 1.4779847 1.1657199Q1.5598366 1.0915337 1.6452301 1.021453Q1.7306236 0.95137227 1.8193529 0.88556606Q1.9080822 0.81975985 1.9999337 0.75838661Q2.091785 0.6970135 2.1865373 0.64022118Q2.2812896 0.58342886 2.3787146 0.53135425Q2.4761391 0.47927961 2.5760016 0.43204808Q2.6758642 0.38481662 2.7779243 0.34254205Q2.8799841 0.30026746 2.9839954 0.26305166Q3.088007 0.22583586 3.1937191 0.19376847Q3.2994308 0.16170108 3.406589 0.13485935Q3.5137472 0.10801762 3.6220934 0.086466223Q3.7304397 0.06491483 3.8397129 0.048705697Q3.9489861 0.032496564 4.0589232 0.021668728Q4.16886 0.010840893 4.2791958 0.0054204464Q4.3895311 0 4.5 0Q4.6104689 0 4.7208047 0.0054204464Q4.8311405 0.010840893 4.9410777 0.021668728Q5.0510139 0.032496564 5.1602874 0.048705697Q5.2695599 0.06491483 5.3779063 0.086466223Q5.4862523 0.10801762 5.5934105 0.13485935Q5.7005692 0.16170108 5.8062811 0.19376847Q5.911993 0.22583586 6.0160041 0.26305169Q6.1200151 0.30026746 6.222075 0.34254205Q6.3241348 0.38481662 6.4239979 0.43204811Q6.5238605 0.47927964 6.6212854 0.53135431Q6.7187099 0.58342892 6.8134623 0.64022124Q6.9082146 0.6970135 7.0000658 0.75838667Q7.091917 0.81975985 7.1806464 0.885566Q7.2693758 0.95137221 7.3547697 1.0214529Q7.4401631 1.0915335 7.5220151 1.1657199Q7.6038666 1.2399062 7.6819801 1.3180194Q7.7600927 1.3961327 7.8342795 1.4779847Q7.9084654 1.5598366 7.9785466 1.6452301Q8.0486269 1.7306236 8.1144333 1.8193529Q8.1802387 1.9080822 8.2416124 1.9999337Q8.3029861 2.091785 8.3597775 2.1865373Q8.4165707 2.2812896 8.4686451 2.3787146Q8.5207195 2.4761391 8.5679502 2.5760016Q8.6151819 2.6758642 8.6574574 2.7779243Q8.6997318 2.8799841 8.736948 2.9839954Q8.7741642 3.088007 8.8062315 3.1937191Q8.8382988 3.2994308 8.8651409 3.406589Q8.8919821 3.5137472 8.9135342 3.6220934Q8.9350853 3.7304397 8.9512939 3.8397129Q8.9675035 3.9489861 8.9783316 4.0589232Q8.9891586 4.16886 8.9945793 4.2791958Q9 4.3895311 9 4.5Z"/>
</svg>
